<svg xmlns="http://www.w3.org/2000/svg" xmlns:xlink="http://www.w3.org/1999/xlink" viewBox="0 0 956.31 275.88"><defs><style>.cls-1{fill:url(#linear-gradient);}.cls-2{fill:url(#linear-gradient-2);}.cls-3{fill:url(#linear-gradient-3);}.cls-4{fill:url(#linear-gradient-4);}.cls-5{fill:url(#linear-gradient-5);}.cls-6{fill:url(#linear-gradient-6);}.cls-7{isolation:isolate;}.cls-11,.cls-12,.cls-8,.cls-9{fill:none;}.cls-8{stroke:#000;stroke-width:8px;}.cls-11,.cls-8,.cls-9{stroke-miterlimit:10;}.cls-11,.cls-9{stroke:#fff;}.cls-9{stroke-width:4px;}.cls-10{fill:#fff;}.cls-12{stroke:#231f20;}</style><linearGradient id="linear-gradient" x1="479.81" y1="-43.96" x2="479.81" y2="21.04" gradientTransform="matrix(1, 0, 0, -1, 0, 231.91)" gradientUnits="userSpaceOnUse"><stop offset="0" stop-color="#005a2b"/><stop offset="0.25" stop-color="#008741"/><stop offset="0.5" stop-color="#00b456"/><stop offset="0.75" stop-color="#008741"/><stop offset="1" stop-color="#005a2b"/></linearGradient><linearGradient id="linear-gradient-2" x1="111.19" y1="34.45" x2="111.19" y2="227.91" gradientTransform="matrix(1, 0, 0, -1, 0, 231.91)" gradientUnits="userSpaceOnUse"><stop offset="0" stop-color="#00b456"/><stop offset="0.5"/></linearGradient><linearGradient id="linear-gradient-3" x1="300.18" y1="34.45" x2="300.18" y2="227.91" xlink:href="#linear-gradient-2"/><linearGradient id="linear-gradient-4" x1="446.35" y1="34.48" x2="446.35" y2="227.94" xlink:href="#linear-gradient-2"/><linearGradient id="linear-gradient-5" x1="599.48" y1="34.44" x2="599.48" y2="227.9" xlink:href="#linear-gradient-2"/><linearGradient id="linear-gradient-6" x1="813.78" y1="34.45" x2="813.78" y2="227.91" xlink:href="#linear-gradient-2"/></defs><title>Asset 1</title><g id="Layer_2" data-name="Layer 2"><g id="Layer_1-2" data-name="Layer 1"><g id="Layer_2-2" data-name="Layer 2-2"><polygon class="cls-1" points="35.81 243.38 15.31 263.88 944.31 263.88 923.81 243.38 944.31 222.88 15.31 222.88 35.81 243.38"/><path class="cls-2" d="M63.06,193.77H53.22q-8.61,0-19.28.82c-4.47.37-7.56.55-9.3.55q-9.15,0-14.9-4.24A13.1,13.1,0,0,1,4,179.83q0-4.79,2.53-7.45t8.27-4.31q5.47-1.38,7.38-4.44t3-12q1.09-10.26,2-39.93t.89-58.92q0-11.49-1.77-15.32T18,31.35Q8.57,27.78,8.56,19.18q0-6.69,6.5-10.45T33.12,5q3.83,0,9,.13,11.49.42,16.68.41Q78.36,5.5,103,4.27,108.17,4,116,4q31.31,0,49.49,7.11Q192.53,21.79,206.21,47q12.16,22.14,12.17,52.77a110.71,110.71,0,0,1-4.52,31,95.23,95.23,0,0,1-12.16,26.86q-15.87,23-43.75,32.27a110.1,110.1,0,0,1-35,5.47l-16.55-.55-14.22-.41Q75.64,193.77,63.06,193.77ZM91.77,45.57V151.39q0,8.61,3.69,12.24t12.31,3.62q39.92,0,39.92-60.7,0-33.51-9.3-52-10.24-20.37-34.72-20.37c-4.38,0-7.45.87-9.23,2.6S91.77,41.47,91.77,45.57Z"/><path class="cls-3" d="M294,58.42c4.83,0,7.77.69,8.82,2s2,5.75,2.8,13.13q.69,6,4.24,6c1.82,0,3.55-1.34,5.2-4q10.94-17,28.55-17,12.43,0,20.37,8.07a30.64,30.64,0,0,1,6.29,10.18,30.4,30.4,0,0,1-.55,25.16,33.2,33.2,0,0,1-7.79,11.14,30,30,0,0,1-21.47,8.34A25.07,25.07,0,0,1,328.78,119q-4.72-2.46-12.38-10c-1.91-1.92-3.69-2.87-5.33-2.87q-3.82,0-5,4.3t-1.16,18.12q0,20.64,1.5,28.16,1,4.11,2.67,5.68c1.14,1.05,3.57,2.12,7.31,3.21q12.32,3.69,12.31,12.85a13.78,13.78,0,0,1-4,9.78,19.59,19.59,0,0,1-10.53,5.53q-13.12,2.73-38.55,2.74-24.19,0-36.78-4.24-11.21-3.84-11.21-13.26,0-7.11,8.21-12.72a20.88,20.88,0,0,0,5.46-4.71,13.32,13.32,0,0,0,2-5.81q2.19-12.45,2.19-46.08c0-4.1-.45-7-1.37-8.82s-2.73-3.21-5.46-4.3q-9.66-3.78-9.66-11,0-6.57,6.7-11.28t22.42-9.36Q279.23,58.57,294,58.42Z"/><path class="cls-4" d="M503.16,132.52H438.9c-2.82,0-4.24,1.23-4.24,3.7q0,8.88,9.64,16.74t20.7,7.87a49.42,49.42,0,0,0,14.56-2.53,48,48,0,0,0,13.19-6.22q4.65-3.29,7.38-3.29c2.37,0,4.71,1.46,7,4.38a14.55,14.55,0,0,1,3.41,9q0,9.84-12.3,19-21.74,16.26-50.18,16.27-28.71,0-48.12-16.68A68.29,68.29,0,0,1,384.35,161a69.28,69.28,0,0,1-8.06-32.54,66.4,66.4,0,0,1,13.94-41.29,73.32,73.32,0,0,1,30.63-23.65,76.76,76.76,0,0,1,30.21-5.88q26,0,44.16,14.77A58.8,58.8,0,0,1,510,89.87q6.42,11.46,6.42,22.42,0,8.88-3.69,14.56T503.16,132.52ZM442.46,107h13.81q8.75,0,8.75-8.07,0-7.38-4.24-12a14.24,14.24,0,0,0-11.08-4.65,14.07,14.07,0,0,0-12,6,19,19,0,0,0-4.1,11.35c0,2.72.67,4.64,2,5.74S439.18,107,442.46,107Z"/><path class="cls-5" d="M603.38,57.47q23.77,0,40.33,12,8.74,6.42,12.23,14.69t3.49,22.8l-.27,20.37q0,21.18,3,27.48a9.38,9.38,0,0,0,2.88,3.83,19,19,0,0,0,5.74,1.5q4.37.69,4.37,5.74,0,6.57-5.26,13.68a44,44,0,0,1-13.6,11.89,42,42,0,0,1-21.47,6q-14.36,0-22.69-9.85-2.88-3.57-5.34-3.55c-1.82,0-4.24,1.14-7.24,3.42a51.49,51.49,0,0,1-31,10q-17.91,0-29-7.66a37.44,37.44,0,0,1-15.73-30.22q0-14.21,11.49-25.15,17.91-17.23,53.59-17.36,7.94,0,10-1.58c1.38-1.06,2.05-3.49,2-7.31q0-14.49-3-21t-9.85-6.49a11.65,11.65,0,0,0-7.31,2.46q-3.21,2.46-8,9-12.16,17.37-25.43,17.37a15.42,15.42,0,0,1-10.94-4,13.57,13.57,0,0,1-4.24-10.39q0-6.57,5.27-13.12a46.26,46.26,0,0,1,14.29-11.49A108.72,108.72,0,0,1,603.38,57.47Zm-9.17,79.16a13.62,13.62,0,0,0-10.45,4.92,16.91,16.91,0,0,0-4.45,11.76q0,6.56,3.15,10.59a10,10,0,0,0,8.34,4q10.94,0,10.93-18.45c0-5-.52-8.39-1.57-10.12s-3-2.61-5.95-2.7Z"/><path class="cls-6" d="M750.35,58.56q7.78,0,7.79,11.07V72c-.09,1.46-.14,2.64-.14,3.55,0,4.92,1.46,7.39,4.38,7.39q2.32,0,7.25-5.88a52.48,52.48,0,0,1,18.59-13.47,55.62,55.62,0,0,1,23-5q22.83,0,31.72,16.68c2.27,4.1,4.13,6.15,5.6,6.15q1.5,0,7.11-5.47Q873.4,58.57,896,58.56q17.64,0,28.85,9.71,11.76,10.11,11.76,30.35,0,4.38-.27,14.76Q936,117,936,134.85q0,11.47-.13,16.13c-.1,1.92-.14,3.28-.14,4.1a23.19,23.19,0,0,0,5.47,15.32,51.29,51.29,0,0,1,4,5.26,7,7,0,0,1,.75,3.49q0,17.49-41.15,17.5-18.18,0-29.33-4.38t-11.14-11.48a9.18,9.18,0,0,1,.75-4.17q.75-1.44,5.27-7.59,4.23-5.61,4.24-37.33,0-18.45-2.6-25.7-3-8.61-12-8.61a12.34,12.34,0,0,0-8,2.8,12.92,12.92,0,0,0-4.58,7q-1.23,4.92-1.37,26.25.4,23,1.44,27.89t6.9,13.67a9.21,9.21,0,0,1,1.37,5.2q0,16.28-42.52,16.27-25.58,0-34.45-3.83c-4.75-2-7.11-5.56-7.11-10.66,0-2.28.29-3.88.88-4.79a54.84,54.84,0,0,1,6.09-6.29,14.69,14.69,0,0,0,3.89-5.4q.9-2.52,1.3-9.23,1-15,1-30.35,0-26.79-13.67-26.79-10.26,0-12.17,11.48-1.63,10.8-1.64,30.9,0,15,.62,19.69a28.2,28.2,0,0,0,3.35,9.7q3.27,5.88,3.28,9.57,0,8.88-12.44,12.31a113.59,113.59,0,0,1-29.81,3.69q-21.06,0-30.9-3.35t-9.84-10.6a7.93,7.93,0,0,1,1.3-4.64,39.19,39.19,0,0,1,5.94-6q6.17-5.61,7.11-15.45,1.51-17,1.51-35.14,0-13-1.3-18.11A14.37,14.37,0,0,0,690.6,95a28.17,28.17,0,0,1-5.26-4.79,7.65,7.65,0,0,1-1.16-4.51q0-9.16,14.35-14.49Q733.12,58.69,750.35,58.56Z"/><g class="cls-7"><g class="cls-7"><path class="cls-8" d="M63.06,193.77H53.22q-8.61,0-19.28.82c-4.47.36-7.56.54-9.3.54q-9.15,0-14.9-4.24A13.12,13.12,0,0,1,4,179.82q0-4.78,2.53-7.45t8.27-4.31q5.47-1.37,7.38-4.44t3-12q1.1-10.26,2-39.93t.89-58.92q0-11.49-1.77-15.31T18,31.34Q8.52,27.78,8.51,19.18q0-6.7,6.5-10.46T33.12,5q3.83,0,9,.13,11.49.42,16.68.41Q78.38,5.5,103,4.27,108.19,4,116,4q31.31,0,49.49,7.11,27.07,10.67,40.75,35.82,12.16,22.16,12.17,52.77a110.39,110.39,0,0,1-4.52,31,95,95,0,0,1-12.16,26.86q-15.87,23-43.75,32.27a109.9,109.9,0,0,1-35,5.47l-16.55-.55-14.22-.41Q75.64,193.77,63.06,193.77ZM91.77,45.56V151.38q0,8.61,3.69,12.24t12.31,3.62q39.92,0,39.92-60.7,0-33.5-9.3-51.95-10.24-20.37-34.72-20.38c-4.38,0-7.45.87-9.23,2.6S91.77,41.46,91.77,45.56Z"/></g><g class="cls-7"><path class="cls-8" d="M294,58.41c4.83,0,7.77.69,8.82,2.05s2,5.75,2.8,13.13q.69,6,4.24,6c1.82,0,3.56-1.32,5.2-4Q326,58.56,343.61,58.55q12.43,0,20.37,8.07a30.76,30.76,0,0,1,6.29,10.18,30.38,30.38,0,0,1-.55,25.16,32.87,32.87,0,0,1-7.79,11.14,29.93,29.93,0,0,1-21.46,8.34A25.07,25.07,0,0,1,328.78,119q-4.72-2.46-12.38-10-2.86-2.86-5.33-2.87c-2.55,0-4.22,1.43-5,4.31s-1.16,8.91-1.16,18.11q0,20.64,1.5,28.16,1,4.11,2.67,5.68t7.31,3.21q12.32,3.69,12.31,12.85a13.71,13.71,0,0,1-4,9.78,19.65,19.65,0,0,1-10.52,5.54q-13.12,2.73-38.56,2.73-24.2,0-36.78-4.24-11.2-3.82-11.21-13.26,0-7.11,8.21-12.72a20.6,20.6,0,0,0,5.46-4.71,13.34,13.34,0,0,0,2.06-5.81q2.17-12.45,2.18-46.08,0-6.15-1.36-8.81t-5.47-4.31Q229,92.74,229,85.48q0-6.56,6.7-11.27t22.42-9.37Q279.22,58.55,294,58.41Z"/></g><g class="cls-7"><path class="cls-8" d="M503.16,132.52H438.9q-4.23,0-4.23,3.69,0,8.88,9.63,16.74T465,160.82a48.92,48.92,0,0,0,14.56-2.53,47.5,47.5,0,0,0,13.19-6.22q4.65-3.28,7.38-3.29,3.56,0,7,4.38a14.57,14.57,0,0,1,3.41,9q0,9.85-12.3,19-21.74,16.26-50.18,16.27-28.71,0-48.12-16.68A68.49,68.49,0,0,1,384.35,161a69.3,69.3,0,0,1-8.06-32.54,66.45,66.45,0,0,1,13.94-41.28,73.3,73.3,0,0,1,30.63-23.66,76.91,76.91,0,0,1,30.21-5.88q26,0,44.16,14.77A59.12,59.12,0,0,1,510,89.86q6.42,11.49,6.42,22.42,0,8.89-3.69,14.56T503.16,132.52ZM442.46,107h13.81q8.75,0,8.75-8.07,0-7.38-4.24-12a14.29,14.29,0,0,0-11.07-4.65,14.08,14.08,0,0,0-12,6,19.12,19.12,0,0,0-4.1,11.35q0,4.09,2,5.74T442.46,107Z"/><path class="cls-8" d="M603.38,57.46q23.79,0,40.33,12,8.74,6.42,12.23,14.7T659.43,107l-.27,20.37q0,21.19,3,27.48a9.23,9.23,0,0,0,2.87,3.83,18.38,18.38,0,0,0,5.74,1.5q4.37.69,4.37,5.74,0,6.57-5.26,13.68a43.68,43.68,0,0,1-13.6,11.89,41.86,41.86,0,0,1-21.47,6q-14.36,0-22.69-9.85c-1.92-2.37-3.69-3.55-5.34-3.55q-2.73,0-7.24,3.42a51.35,51.35,0,0,1-31,10q-17.91,0-29-7.66a37.38,37.38,0,0,1-15.72-30.21q0-14.22,11.48-25.16,17.91-17.24,53.59-17.36,7.93,0,10-1.58t2.06-7.31q0-14.49-3-21t-9.85-6.49a11.71,11.71,0,0,0-7.31,2.46q-3.21,2.46-8,9-12.16,17.37-25.43,17.37a15.35,15.35,0,0,1-10.94-4,13.57,13.57,0,0,1-4.23-10.39q0-6.56,5.26-13.12A46.45,46.45,0,0,1,551.7,70.58,108.82,108.82,0,0,1,603.38,57.46Zm-9.16,79.16a13.66,13.66,0,0,0-10.46,4.92,16.92,16.92,0,0,0-4.45,11.76q0,6.55,3.15,10.59a10,10,0,0,0,8.34,4q10.94,0,10.94-18.46c0-5-.53-8.39-1.58-10.12S597.13,136.71,594.22,136.62Z"/><path class="cls-8" d="M750.35,58.55q7.78,0,7.79,11.08V72c-.09,1.46-.13,2.64-.13,3.55,0,4.93,1.45,7.39,4.37,7.39q2.32,0,7.25-5.88a52.66,52.66,0,0,1,18.59-13.47,55.88,55.88,0,0,1,23-5q22.83,0,31.72,16.68c2.28,4.1,4.14,6.15,5.6,6.15,1,0,3.37-1.82,7.11-5.47Q873.4,58.56,896,58.55q17.64,0,28.85,9.71,11.76,10.11,11.76,30.35,0,4.38-.27,14.77-.28,3.56-.28,21.46,0,11.49-.13,16.13c-.1,1.92-.14,3.28-.14,4.1a23.19,23.19,0,0,0,5.47,15.32,51.09,51.09,0,0,1,4,5.26,7,7,0,0,1,.75,3.49q0,17.49-41.15,17.5-18.18,0-29.32-4.38t-11.15-11.48a9.19,9.19,0,0,1,.75-4.17q.75-1.44,5.27-7.59,4.23-5.61,4.24-37.33,0-18.45-2.6-25.7-3-8.61-12-8.61a12.39,12.39,0,0,0-8,2.8,13.05,13.05,0,0,0-4.58,7q-1.23,4.92-1.37,26.25.42,23,1.44,27.89t6.9,13.67a9.2,9.2,0,0,1,1.37,5.2q0,16.28-42.52,16.27-25.57,0-34.45-3.83-7.11-3-7.11-10.66c0-2.28.29-3.88.89-4.79a55.2,55.2,0,0,1,6.08-6.29,14.71,14.71,0,0,0,3.9-5.4,39.76,39.76,0,0,0,1.3-9.23q.95-15,.95-30.35,0-26.79-13.67-26.79-10.26,0-12.17,11.48-1.63,10.8-1.64,30.9,0,15,.62,19.69a28.15,28.15,0,0,0,3.35,9.7q3.27,5.88,3.28,9.57,0,8.9-12.44,12.31a113.2,113.2,0,0,1-29.81,3.69q-21.06,0-30.9-3.35t-9.84-10.6a8,8,0,0,1,1.3-4.64,39.52,39.52,0,0,1,6-6q6.15-5.61,7.11-15.45,1.5-17,1.5-35.14,0-13-1.3-18.11a14.42,14.42,0,0,0-5.54-8.27,27.74,27.74,0,0,1-5.26-4.79,7.62,7.62,0,0,1-1.16-4.51q0-9.15,14.35-14.49Q733.12,58.7,750.35,58.55Z"/></g></g><g class="cls-7"><g class="cls-7"><path class="cls-9" d="M63.06,193.77H53.22q-8.61,0-19.28.82c-4.47.36-7.56.54-9.3.54q-9.15,0-14.9-4.24A13.12,13.12,0,0,1,4,179.82q0-4.78,2.53-7.45t8.27-4.31q5.47-1.37,7.38-4.44t3-12q1.1-10.26,2-39.93t.89-58.92q0-11.49-1.77-15.31T18,31.34Q8.52,27.78,8.51,19.18q0-6.7,6.5-10.46T33.12,5q3.83,0,9,.13,11.49.42,16.68.41Q78.38,5.5,103,4.27,108.19,4,116,4q31.31,0,49.49,7.11,27.07,10.67,40.75,35.82,12.16,22.16,12.17,52.77a110.39,110.39,0,0,1-4.52,31,95,95,0,0,1-12.16,26.86q-15.87,23-43.75,32.27a109.9,109.9,0,0,1-35,5.47l-16.55-.55-14.22-.41Q75.64,193.77,63.06,193.77ZM91.77,45.56V151.38q0,8.61,3.69,12.24t12.31,3.62q39.92,0,39.92-60.7,0-33.5-9.3-51.95-10.24-20.37-34.72-20.38c-4.38,0-7.45.87-9.23,2.6S91.77,41.46,91.77,45.56Z"/></g><g class="cls-7"><path class="cls-9" d="M294,58.41c4.83,0,7.77.69,8.82,2.05s2,5.75,2.8,13.13q.69,6,4.24,6c1.82,0,3.56-1.32,5.2-4Q326,58.56,343.61,58.55q12.43,0,20.37,8.07a30.76,30.76,0,0,1,6.29,10.18,30.38,30.38,0,0,1-.55,25.16,32.87,32.87,0,0,1-7.79,11.14,29.93,29.93,0,0,1-21.46,8.34A25.07,25.07,0,0,1,328.78,119q-4.72-2.46-12.38-10-2.86-2.86-5.33-2.87c-2.55,0-4.22,1.43-5,4.31s-1.16,8.91-1.16,18.11q0,20.64,1.5,28.16,1,4.11,2.67,5.68t7.31,3.21q12.32,3.69,12.31,12.85a13.71,13.71,0,0,1-4,9.78,19.65,19.65,0,0,1-10.52,5.54q-13.12,2.73-38.56,2.73-24.2,0-36.78-4.24-11.2-3.82-11.21-13.26,0-7.11,8.21-12.72a20.6,20.6,0,0,0,5.46-4.71,13.34,13.34,0,0,0,2.06-5.81q2.17-12.45,2.18-46.08,0-6.15-1.36-8.81t-5.47-4.31Q229,92.74,229,85.48q0-6.56,6.7-11.27t22.42-9.37Q279.22,58.55,294,58.41Z"/></g><g class="cls-7"><path class="cls-9" d="M503.16,132.52H438.9q-4.23,0-4.23,3.69,0,8.88,9.63,16.74T465,160.82a48.92,48.92,0,0,0,14.56-2.53,47.5,47.5,0,0,0,13.19-6.22q4.65-3.28,7.38-3.29,3.56,0,7,4.38a14.57,14.57,0,0,1,3.41,9q0,9.85-12.3,19-21.74,16.26-50.18,16.27-28.71,0-48.12-16.68A68.49,68.49,0,0,1,384.35,161a69.3,69.3,0,0,1-8.06-32.54,66.45,66.45,0,0,1,13.94-41.28,73.3,73.3,0,0,1,30.63-23.66,76.91,76.91,0,0,1,30.21-5.88q26,0,44.16,14.77A59.12,59.12,0,0,1,510,89.86q6.42,11.49,6.42,22.42,0,8.89-3.69,14.56T503.16,132.52ZM442.46,107h13.81q8.75,0,8.75-8.07,0-7.38-4.24-12a14.29,14.29,0,0,0-11.07-4.65,14.08,14.08,0,0,0-12,6,19.12,19.12,0,0,0-4.1,11.35q0,4.09,2,5.74T442.46,107Z"/><path class="cls-9" d="M603.38,57.46q23.79,0,40.33,12,8.74,6.42,12.23,14.7T659.43,107l-.27,20.37q0,21.19,3,27.48a9.23,9.23,0,0,0,2.87,3.83,18.38,18.38,0,0,0,5.74,1.5q4.37.69,4.37,5.74,0,6.57-5.26,13.68a43.68,43.68,0,0,1-13.6,11.89,41.86,41.86,0,0,1-21.47,6q-14.36,0-22.69-9.85c-1.92-2.37-3.69-3.55-5.34-3.55q-2.73,0-7.24,3.42a51.35,51.35,0,0,1-31,10q-17.91,0-29-7.66a37.38,37.38,0,0,1-15.72-30.21q0-14.22,11.48-25.16,17.91-17.24,53.59-17.36,7.93,0,10-1.58t2.06-7.31q0-14.49-3-21t-9.85-6.49a11.71,11.71,0,0,0-7.31,2.46q-3.21,2.46-8,9-12.16,17.37-25.43,17.37a15.35,15.35,0,0,1-10.94-4,13.57,13.57,0,0,1-4.23-10.39q0-6.56,5.26-13.12A46.45,46.45,0,0,1,551.7,70.58,108.82,108.82,0,0,1,603.38,57.46Zm-9.16,79.16a13.66,13.66,0,0,0-10.46,4.92,16.92,16.92,0,0,0-4.45,11.76q0,6.55,3.15,10.59a10,10,0,0,0,8.34,4q10.94,0,10.94-18.46c0-5-.53-8.39-1.58-10.12S597.13,136.71,594.22,136.62Z"/><path class="cls-9" d="M750.35,58.55q7.78,0,7.79,11.08V72c-.09,1.46-.13,2.64-.13,3.55,0,4.93,1.45,7.39,4.37,7.39q2.32,0,7.25-5.88a52.66,52.66,0,0,1,18.59-13.47,55.88,55.88,0,0,1,23-5q22.83,0,31.72,16.68c2.28,4.1,4.14,6.15,5.6,6.15,1,0,3.37-1.82,7.11-5.47Q873.4,58.56,896,58.55q17.64,0,28.85,9.71,11.76,10.11,11.76,30.35,0,4.38-.27,14.77-.28,3.56-.28,21.46,0,11.49-.13,16.13c-.1,1.92-.14,3.28-.14,4.1a23.19,23.19,0,0,0,5.47,15.32,51.09,51.09,0,0,1,4,5.26,7,7,0,0,1,.75,3.49q0,17.49-41.15,17.5-18.18,0-29.32-4.38t-11.15-11.48a9.19,9.19,0,0,1,.75-4.17q.75-1.44,5.27-7.59,4.23-5.61,4.24-37.33,0-18.45-2.6-25.7-3-8.61-12-8.61a12.39,12.39,0,0,0-8,2.8,13.05,13.05,0,0,0-4.58,7q-1.23,4.92-1.37,26.25.42,23,1.44,27.89t6.9,13.67a9.2,9.2,0,0,1,1.37,5.2q0,16.28-42.52,16.27-25.57,0-34.45-3.83-7.11-3-7.11-10.66c0-2.28.29-3.88.89-4.79a55.2,55.2,0,0,1,6.08-6.29,14.71,14.71,0,0,0,3.9-5.4,39.76,39.76,0,0,0,1.3-9.23q.95-15,.95-30.35,0-26.79-13.67-26.79-10.26,0-12.17,11.48-1.63,10.8-1.64,30.9,0,15,.62,19.69a28.15,28.15,0,0,0,3.35,9.7q3.27,5.88,3.28,9.57,0,8.9-12.44,12.31a113.2,113.2,0,0,1-29.81,3.69q-21.06,0-30.9-3.35t-9.84-10.6a8,8,0,0,1,1.3-4.64,39.52,39.52,0,0,1,6-6q6.15-5.61,7.11-15.45,1.5-17,1.5-35.14,0-13-1.3-18.11a14.42,14.42,0,0,0-5.54-8.27,27.74,27.74,0,0,1-5.26-4.79,7.62,7.62,0,0,1-1.16-4.51q0-9.15,14.35-14.49Q733.12,58.7,750.35,58.55Z"/></g></g><polygon class="cls-1" points="11.31 267.88 3.31 275.88 956.31 275.88 948.31 267.88 11.31 267.88"/><polygon class="cls-1" points="948.31 218.88 956.31 210.88 3.31 210.88 11.31 218.88 948.31 218.88"/><g class="cls-7"><g class="cls-7"><path class="cls-10" d="M239.87,243.83v7.91a1.22,1.22,0,0,0,.26.82,1.69,1.69,0,0,0,.87.44v.57h-7.49V253a1.8,1.8,0,0,0,.88-.45,1.22,1.22,0,0,0,.25-.81V231.42a1.25,1.25,0,0,0-.25-.83,1.8,1.8,0,0,0-.88-.46v-.56h15a19.7,19.7,0,0,1,4.15.35,7.25,7.25,0,0,1,2.72,1.22,6.05,6.05,0,0,1,1.9,2.35,7.63,7.63,0,0,1,.68,3.2,7.09,7.09,0,0,1-1.3,4.25,6.05,6.05,0,0,1-3,2.23,16,16,0,0,1-5.17.66Zm0-4h8a7.83,7.83,0,0,0,3.36-.51,2.38,2.38,0,0,0,1-1.06,3.56,3.56,0,0,0,0-3.2,2.38,2.38,0,0,0-1-1.06,7.74,7.74,0,0,0-3.36-.51h-8Z"/></g><g class="cls-7"><path class="cls-11" d="M239.87,243.83v7.91a1.22,1.22,0,0,0,.26.82,1.69,1.69,0,0,0,.87.44v.57h-7.49V253a1.8,1.8,0,0,0,.88-.45,1.22,1.22,0,0,0,.25-.81V231.42a1.25,1.25,0,0,0-.25-.83,1.8,1.8,0,0,0-.88-.46v-.56h15a19.7,19.7,0,0,1,4.15.35,7.25,7.25,0,0,1,2.72,1.22,6.05,6.05,0,0,1,1.9,2.35,7.63,7.63,0,0,1,.68,3.2,7.09,7.09,0,0,1-1.3,4.25,6.05,6.05,0,0,1-3,2.23,16,16,0,0,1-5.17.66Zm0-4h8a7.83,7.83,0,0,0,3.36-.51,2.38,2.38,0,0,0,1-1.06,3.56,3.56,0,0,0,0-3.2,2.38,2.38,0,0,0-1-1.06,7.74,7.74,0,0,0-3.36-.51h-8Z"/></g><g class="cls-7"><path class="cls-10" d="M266.19,245.48v6.28a1.26,1.26,0,0,0,.24.83,1.94,1.94,0,0,0,.88.48v.5h-7v-.5a1.62,1.62,0,0,0,.87-.45,1.27,1.27,0,0,0,.26-.85v-16.1a1.22,1.22,0,0,0-.25-.82,1.88,1.88,0,0,0-.88-.48v-.49h12.9a21.79,21.79,0,0,1,3.84.25,6.58,6.58,0,0,1,2.35.93,5,5,0,0,1,2.13,4.53,5.15,5.15,0,0,1-1.31,3.74,8.11,8.11,0,0,1-4.23,1.94l3.73,5.19a12.05,12.05,0,0,0,1.62,2,2.94,2.94,0,0,0,1.38.65v.5h-8.28v-.5c.61-.16.92-.42.92-.79a2.53,2.53,0,0,0-.56-1.17l-3.94-5.63Zm0-3.57h7.1a6.2,6.2,0,0,0,2.39-.35,1.84,1.84,0,0,0,1.09-1.88,1.91,1.91,0,0,0-.77-1.74,5.32,5.32,0,0,0-2.71-.49h-7.1Z"/></g><g class="cls-7"><path class="cls-11" d="M266.19,245.48v6.28a1.26,1.26,0,0,0,.24.83,1.94,1.94,0,0,0,.88.48v.5h-7v-.5a1.62,1.62,0,0,0,.87-.45,1.27,1.27,0,0,0,.26-.85v-16.1a1.22,1.22,0,0,0-.25-.82,1.88,1.88,0,0,0-.88-.48v-.49h12.9a21.79,21.79,0,0,1,3.84.25,6.58,6.58,0,0,1,2.35.93,5,5,0,0,1,2.13,4.53,5.15,5.15,0,0,1-1.31,3.74,8.11,8.11,0,0,1-4.23,1.94l3.73,5.19a12.05,12.05,0,0,0,1.62,2,2.94,2.94,0,0,0,1.38.65v.5h-8.28v-.5c.61-.16.92-.42.92-.79a2.53,2.53,0,0,0-.56-1.17l-3.94-5.63Zm0-3.57h7.1a6.2,6.2,0,0,0,2.39-.35,1.84,1.84,0,0,0,1.09-1.88,1.91,1.91,0,0,0-.77-1.74,5.32,5.32,0,0,0-2.71-.49h-7.1Z"/></g><g class="cls-7"><path class="cls-10" d="M295.48,233.46a12.46,12.46,0,0,1,7.83,2.39,9.55,9.55,0,0,1,3.75,8,9.24,9.24,0,0,1-3.75,7.72,13.89,13.89,0,0,1-15.58,0,9.39,9.39,0,0,1-3.77-7.88,9.28,9.28,0,0,1,3.77-7.87A12.74,12.74,0,0,1,295.48,233.46Zm0,3.72a6.65,6.65,0,0,0-5,1.95,6.78,6.78,0,0,0,0,9.16,7.25,7.25,0,0,0,9.94,0,6.11,6.11,0,0,0,1.78-4.48,6.33,6.33,0,0,0-1.78-4.68A7,7,0,0,0,295.5,237.18Z"/></g><g class="cls-7"><path class="cls-11" d="M295.48,233.46a12.46,12.46,0,0,1,7.83,2.39,9.55,9.55,0,0,1,3.75,8,9.24,9.24,0,0,1-3.75,7.72,13.89,13.89,0,0,1-15.58,0,9.39,9.39,0,0,1-3.77-7.88,9.28,9.28,0,0,1,3.77-7.87A12.74,12.74,0,0,1,295.48,233.46Zm0,3.72a6.65,6.65,0,0,0-5,1.95,6.78,6.78,0,0,0,0,9.16,7.25,7.25,0,0,0,9.94,0,6.11,6.11,0,0,0,1.78-4.48,6.33,6.33,0,0,0-1.78-4.68A7,7,0,0,0,295.5,237.18Z"/></g><g class="cls-7"><path class="cls-10" d="M327.58,246h-4.49a1.25,1.25,0,0,0-.85.25,1.8,1.8,0,0,0-.47.88h-.47v-5.22h.47a1.81,1.81,0,0,0,.47.87,1.25,1.25,0,0,0,.85.25h9.37v.51a1.65,1.65,0,0,0-.87.51,1.54,1.54,0,0,0-.25.95v4.15a1.26,1.26,0,0,0,.25.84,1.78,1.78,0,0,0,.87.48v.4A23.26,23.26,0,0,1,321.11,254a12.72,12.72,0,0,1-7.91-2.3,9.92,9.92,0,0,1-3.82-7.86,9.69,9.69,0,0,1,2.15-6.19q3.33-4.19,9.88-4.18a20.37,20.37,0,0,1,6.53,1.26,10,10,0,0,0,1.71.49,1.27,1.27,0,0,0,.7-.28l.42.23-2.34,5-.42-.21v-.11c0-.43-.44-.88-1.3-1.33a10.8,10.8,0,0,0-5.17-1.29,7.76,7.76,0,0,0-5.22,1.74,6.17,6.17,0,0,0-2.14,4.93,5.92,5.92,0,0,0,1.95,4.64,8.23,8.23,0,0,0,5.63,1.77,12.21,12.21,0,0,0,5.82-1.28Z"/></g><g class="cls-7"><path class="cls-11" d="M327.58,246h-4.49a1.25,1.25,0,0,0-.85.25,1.8,1.8,0,0,0-.47.88h-.47v-5.22h.47a1.81,1.81,0,0,0,.47.87,1.25,1.25,0,0,0,.85.25h9.37v.51a1.65,1.65,0,0,0-.87.51,1.54,1.54,0,0,0-.25.95v4.15a1.26,1.26,0,0,0,.25.84,1.78,1.78,0,0,0,.87.48v.4A23.26,23.26,0,0,1,321.11,254a12.72,12.72,0,0,1-7.91-2.3,9.92,9.92,0,0,1-3.82-7.86,9.69,9.69,0,0,1,2.15-6.19q3.33-4.19,9.88-4.18a20.37,20.37,0,0,1,6.53,1.26,10,10,0,0,0,1.71.49,1.27,1.27,0,0,0,.7-.28l.42.23-2.34,5-.42-.21v-.11c0-.43-.44-.88-1.3-1.33a10.8,10.8,0,0,0-5.17-1.29,7.76,7.76,0,0,0-5.22,1.74,6.17,6.17,0,0,0-2.14,4.93,5.92,5.92,0,0,0,1.95,4.64,8.23,8.23,0,0,0,5.63,1.77,12.21,12.21,0,0,0,5.82-1.28Z"/></g><g class="cls-7"><path class="cls-10" d="M341,245.48v6.28a1.26,1.26,0,0,0,.24.83,1.94,1.94,0,0,0,.88.48v.5h-7v-.5a1.62,1.62,0,0,0,.87-.45,1.27,1.27,0,0,0,.26-.85v-16.1a1.22,1.22,0,0,0-.25-.82,1.88,1.88,0,0,0-.88-.48v-.49H348a21.79,21.79,0,0,1,3.84.25,6.58,6.58,0,0,1,2.35.93,5,5,0,0,1,2.13,4.53,5.15,5.15,0,0,1-1.31,3.74,8.11,8.11,0,0,1-4.23,1.94l3.73,5.19a12.05,12.05,0,0,0,1.62,2,2.94,2.94,0,0,0,1.38.65v.5h-8.28v-.5c.61-.16.92-.42.92-.79a2.53,2.53,0,0,0-.56-1.17l-3.94-5.63Zm0-3.57h7.1a6.2,6.2,0,0,0,2.39-.35,1.84,1.84,0,0,0,1.09-1.88,1.91,1.91,0,0,0-.77-1.74,5.32,5.32,0,0,0-2.71-.49H341Z"/></g><g class="cls-7"><path class="cls-11" d="M341,245.48v6.28a1.26,1.26,0,0,0,.24.83,1.94,1.94,0,0,0,.88.48v.5h-7v-.5a1.62,1.62,0,0,0,.87-.45,1.27,1.27,0,0,0,.26-.85v-16.1a1.22,1.22,0,0,0-.25-.82,1.88,1.88,0,0,0-.88-.48v-.49H348a21.79,21.79,0,0,1,3.84.25,6.58,6.58,0,0,1,2.35.93,5,5,0,0,1,2.13,4.53,5.15,5.15,0,0,1-1.31,3.74,8.11,8.11,0,0,1-4.23,1.94l3.73,5.19a12.05,12.05,0,0,0,1.62,2,2.94,2.94,0,0,0,1.38.65v.5h-8.28v-.5c.61-.16.92-.42.92-.79a2.53,2.53,0,0,0-.56-1.17l-3.94-5.63Zm0-3.57h7.1a6.2,6.2,0,0,0,2.39-.35,1.84,1.84,0,0,0,1.09-1.88,1.91,1.91,0,0,0-.77-1.74,5.32,5.32,0,0,0-2.71-.49H341Z"/></g><g class="cls-7"><path class="cls-10" d="M375.48,248.64h-9.06l-1,2.15A3.17,3.17,0,0,0,365,252c0,.56.38.92,1.13,1.07v.5h-7.23v-.5a1.89,1.89,0,0,0,1-.4,4.18,4.18,0,0,0,.76-1.18l7.19-14.55a3.38,3.38,0,0,0,.41-1.44c0-.48-.33-.86-1-1.13v-.49h7.65v.49a1.3,1.3,0,0,0-1,1.2,3.28,3.28,0,0,0,.44,1.42l7.46,14.11a7.2,7.2,0,0,0,1,1.5,2.13,2.13,0,0,0,1.07.47v.5h-8v-.5c.76-.12,1.14-.48,1.14-1.06a2.85,2.85,0,0,0-.44-1.35Zm-1.42-2.76-3.22-6.33-3.07,6.33Z"/></g><g class="cls-7"><path class="cls-11" d="M375.48,248.64h-9.06l-1,2.15A3.17,3.17,0,0,0,365,252c0,.56.38.92,1.13,1.07v.5h-7.23v-.5a1.89,1.89,0,0,0,1-.4,4.18,4.18,0,0,0,.76-1.18l7.19-14.55a3.38,3.38,0,0,0,.41-1.44c0-.48-.33-.86-1-1.13v-.49h7.65v.49a1.3,1.3,0,0,0-1,1.2,3.28,3.28,0,0,0,.44,1.42l7.46,14.11a7.2,7.2,0,0,0,1,1.5,2.13,2.13,0,0,0,1.07.47v.5h-8v-.5c.76-.12,1.14-.48,1.14-1.06a2.85,2.85,0,0,0-.44-1.35Zm-1.42-2.76-3.22-6.33-3.07,6.33Z"/></g><g class="cls-7"><path class="cls-10" d="M398.38,253.57l-7.18-13v11.15a1.26,1.26,0,0,0,.24.83,1.94,1.94,0,0,0,.88.48v.5h-6.54v-.5a1.62,1.62,0,0,0,.87-.45,1.27,1.27,0,0,0,.26-.85v-16.1a1.26,1.26,0,0,0-.25-.83,1.72,1.72,0,0,0-.88-.47v-.49h8.32v.49a1,1,0,0,0-.83,1,3.7,3.7,0,0,0,.6,1.76l4.91,8.91,5-8.79a4.74,4.74,0,0,0,.84-2c0-.48-.29-.78-.86-.91v-.49h8.1v.49a1.68,1.68,0,0,0-.87.47,1.21,1.21,0,0,0-.25.83v16.09a1.26,1.26,0,0,0,.25.84,1.61,1.61,0,0,0,.87.47v.5h-7v-.5a1.62,1.62,0,0,0,.87-.45,1.27,1.27,0,0,0,.26-.85V240.61Z"/><path class="cls-10" d="M427.53,253.57l-7.18-13v11.15a1.21,1.21,0,0,0,.25.83,1.84,1.84,0,0,0,.87.48v.5h-6.53v-.5a1.62,1.62,0,0,0,.87-.45,1.27,1.27,0,0,0,.25-.85v-16.1a1.21,1.21,0,0,0-.25-.83,1.68,1.68,0,0,0-.87-.47v-.49h8.31v.49a1,1,0,0,0-.82,1,3.78,3.78,0,0,0,.59,1.76l4.92,8.91,4.94-8.79a4.74,4.74,0,0,0,.84-2c0-.48-.28-.78-.86-.91v-.49H441v.49a1.72,1.72,0,0,0-.88.47,1.26,1.26,0,0,0-.25.83v16.09a1.31,1.31,0,0,0,.25.84,1.65,1.65,0,0,0,.88.47v.5h-7v-.5a1.62,1.62,0,0,0,.87-.45,1.27,1.27,0,0,0,.25-.85V240.61Z"/></g><g class="cls-7"><path class="cls-11" d="M398.38,253.57l-7.18-13v11.15a1.26,1.26,0,0,0,.24.83,1.94,1.94,0,0,0,.88.48v.5h-6.54v-.5a1.62,1.62,0,0,0,.87-.45,1.27,1.27,0,0,0,.26-.85v-16.1a1.26,1.26,0,0,0-.25-.83,1.72,1.72,0,0,0-.88-.47v-.49h8.32v.49a1,1,0,0,0-.83,1,3.7,3.7,0,0,0,.6,1.76l4.91,8.91,5-8.79a4.74,4.74,0,0,0,.84-2c0-.48-.29-.78-.86-.91v-.49h8.1v.49a1.68,1.68,0,0,0-.87.47,1.21,1.21,0,0,0-.25.83v16.09a1.26,1.26,0,0,0,.25.84,1.61,1.61,0,0,0,.87.47v.5h-7v-.5a1.62,1.62,0,0,0,.87-.45,1.27,1.27,0,0,0,.26-.85V240.61Z"/><path class="cls-11" d="M427.53,253.57l-7.18-13v11.15a1.21,1.21,0,0,0,.25.83,1.84,1.84,0,0,0,.87.48v.5h-6.53v-.5a1.62,1.62,0,0,0,.87-.45,1.27,1.27,0,0,0,.25-.85v-16.1a1.21,1.21,0,0,0-.25-.83,1.68,1.68,0,0,0-.87-.47v-.49h8.31v.49a1,1,0,0,0-.82,1,3.78,3.78,0,0,0,.59,1.76l4.92,8.91,4.94-8.79a4.74,4.74,0,0,0,.84-2c0-.48-.28-.78-.86-.91v-.49H441v.49a1.72,1.72,0,0,0-.88.47,1.26,1.26,0,0,0-.25.83v16.09a1.31,1.31,0,0,0,.25.84,1.65,1.65,0,0,0,.88.47v.5h-7v-.5a1.62,1.62,0,0,0,.87-.45,1.27,1.27,0,0,0,.25-.85V240.61Z"/></g><g class="cls-7"><path class="cls-10" d="M449.68,235.67v16.09a1.26,1.26,0,0,0,.24.83,1.94,1.94,0,0,0,.88.48v.5h-7v-.5a1.62,1.62,0,0,0,.87-.45,1.27,1.27,0,0,0,.26-.85v-16.1a1.22,1.22,0,0,0-.25-.82,1.88,1.88,0,0,0-.88-.48v-.49h7v.49a1.76,1.76,0,0,0-.88.47A1.26,1.26,0,0,0,449.68,235.67Z"/></g><g class="cls-7"><path class="cls-11" d="M449.68,235.67v16.09a1.26,1.26,0,0,0,.24.83,1.94,1.94,0,0,0,.88.48v.5h-7v-.5a1.62,1.62,0,0,0,.87-.45,1.27,1.27,0,0,0,.26-.85v-16.1a1.22,1.22,0,0,0-.25-.82,1.88,1.88,0,0,0-.88-.48v-.49h7v.49a1.76,1.76,0,0,0-.88.47A1.26,1.26,0,0,0,449.68,235.67Z"/></g><g class="cls-7"><path class="cls-10" d="M459.16,240.59v11.17a1.26,1.26,0,0,0,.25.84,1.7,1.7,0,0,0,.87.47v.5h-6.54v-.5a1.62,1.62,0,0,0,.87-.45,1.27,1.27,0,0,0,.26-.85v-16.1a1.22,1.22,0,0,0-.25-.82,1.88,1.88,0,0,0-.88-.48v-.49h7.56v.49c-.51.13-.77.36-.77.69a1.54,1.54,0,0,0,.56,1l10.56,10.48V235.67a1.26,1.26,0,0,0-.24-.83,1.76,1.76,0,0,0-.88-.47v-.49h6.54v.49a1.72,1.72,0,0,0-.88.47,1.21,1.21,0,0,0-.25.83v16.09a1.21,1.21,0,0,0,.25.83,1.88,1.88,0,0,0,.88.48v.5H470v-.5c.51-.1.77-.32.77-.64a.85.85,0,0,0-.21-.51c-.14-.17-.46-.51-1-1Z"/></g><g class="cls-7"><path class="cls-11" d="M459.16,240.59v11.17a1.26,1.26,0,0,0,.25.84,1.7,1.7,0,0,0,.87.47v.5h-6.54v-.5a1.62,1.62,0,0,0,.87-.45,1.27,1.27,0,0,0,.26-.85v-16.1a1.22,1.22,0,0,0-.25-.82,1.88,1.88,0,0,0-.88-.48v-.49h7.56v.49c-.51.13-.77.36-.77.69a1.54,1.54,0,0,0,.56,1l10.56,10.48V235.67a1.26,1.26,0,0,0-.24-.83,1.76,1.76,0,0,0-.88-.47v-.49h6.54v.49a1.72,1.72,0,0,0-.88.47,1.21,1.21,0,0,0-.25.83v16.09a1.21,1.21,0,0,0,.25.83,1.88,1.88,0,0,0,.88.48v.5H470v-.5c.51-.1.77-.32.77-.64a.85.85,0,0,0-.21-.51c-.14-.17-.46-.51-1-1Z"/></g><g class="cls-7"><path class="cls-10" d="M497.69,246H493.2a1.25,1.25,0,0,0-.85.25,1.8,1.8,0,0,0-.47.88h-.47v-5.22h.47a1.81,1.81,0,0,0,.47.87,1.25,1.25,0,0,0,.85.25h9.37v.51a1.65,1.65,0,0,0-.87.51,1.54,1.54,0,0,0-.25.95v4.15a1.26,1.26,0,0,0,.25.84,1.78,1.78,0,0,0,.87.48v.4A23.29,23.29,0,0,1,491.22,254a12.72,12.72,0,0,1-7.91-2.3,9.92,9.92,0,0,1-3.82-7.86,9.69,9.69,0,0,1,2.15-6.19q3.33-4.19,9.88-4.18a20.42,20.42,0,0,1,6.53,1.26,10,10,0,0,0,1.71.49,1.27,1.27,0,0,0,.7-.28l.42.23-2.34,5-.42-.21v-.11c0-.43-.44-.88-1.3-1.33a10.8,10.8,0,0,0-5.17-1.29,7.76,7.76,0,0,0-5.22,1.74,6.17,6.17,0,0,0-2.14,4.93,5.92,5.92,0,0,0,1.95,4.64,8.23,8.23,0,0,0,5.63,1.77,12.21,12.21,0,0,0,5.82-1.28Z"/></g><g class="cls-7"><path class="cls-11" d="M497.69,246H493.2a1.25,1.25,0,0,0-.85.25,1.8,1.8,0,0,0-.47.88h-.47v-5.22h.47a1.81,1.81,0,0,0,.47.87,1.25,1.25,0,0,0,.85.25h9.37v.51a1.65,1.65,0,0,0-.87.51,1.54,1.54,0,0,0-.25.95v4.15a1.26,1.26,0,0,0,.25.84,1.78,1.78,0,0,0,.87.48v.4A23.29,23.29,0,0,1,491.22,254a12.72,12.72,0,0,1-7.91-2.3,9.92,9.92,0,0,1-3.82-7.86,9.69,9.69,0,0,1,2.15-6.19q3.33-4.19,9.88-4.18a20.42,20.42,0,0,1,6.53,1.26,10,10,0,0,0,1.71.49,1.27,1.27,0,0,0,.7-.28l.42.23-2.34,5-.42-.21v-.11c0-.43-.44-.88-1.3-1.33a10.8,10.8,0,0,0-5.17-1.29,7.76,7.76,0,0,0-5.22,1.74,6.17,6.17,0,0,0-2.14,4.93,5.92,5.92,0,0,0,1.95,4.64,8.23,8.23,0,0,0,5.63,1.77,12.21,12.21,0,0,0,5.82-1.28Z"/></g><g class="cls-7"><path class="cls-10" d="M529.76,248.64H520.7l-1,2.15a3.17,3.17,0,0,0-.37,1.21c0,.56.38.92,1.13,1.07v.5h-7.23v-.5a1.89,1.89,0,0,0,1-.4,4.18,4.18,0,0,0,.76-1.18l7.19-14.55a3.38,3.38,0,0,0,.41-1.44c0-.48-.33-.86-1-1.13v-.49h7.65v.49a1.3,1.3,0,0,0-1,1.2,3.28,3.28,0,0,0,.44,1.42l7.46,14.11a7.2,7.2,0,0,0,1,1.5,2.13,2.13,0,0,0,1.08.47v.5h-8.05v-.5c.76-.12,1.14-.48,1.14-1.06a2.93,2.93,0,0,0-.43-1.35Zm-1.42-2.76-3.22-6.33-3.07,6.33Z"/></g><g class="cls-7"><path class="cls-11" d="M529.76,248.64H520.7l-1,2.15a3.17,3.17,0,0,0-.37,1.21c0,.56.38.92,1.13,1.07v.5h-7.23v-.5a1.89,1.89,0,0,0,1-.4,4.18,4.18,0,0,0,.76-1.18l7.19-14.55a3.38,3.38,0,0,0,.41-1.44c0-.48-.33-.86-1-1.13v-.49h7.65v.49a1.3,1.3,0,0,0-1,1.2,3.28,3.28,0,0,0,.44,1.42l7.46,14.11a7.2,7.2,0,0,0,1,1.5,2.13,2.13,0,0,0,1.08.47v.5h-8.05v-.5c.76-.12,1.14-.48,1.14-1.06a2.93,2.93,0,0,0-.43-1.35Zm-1.42-2.76-3.22-6.33-3.07,6.33Z"/></g><g class="cls-7"><path class="cls-10" d="M545.48,240.59v11.17a1.26,1.26,0,0,0,.25.84,1.7,1.7,0,0,0,.87.47v.5h-6.54v-.5a1.62,1.62,0,0,0,.87-.45,1.27,1.27,0,0,0,.26-.85v-16.1a1.22,1.22,0,0,0-.25-.82,1.88,1.88,0,0,0-.88-.48v-.49h7.56v.49c-.51.13-.77.36-.77.69a1.54,1.54,0,0,0,.56,1L558,246.52V235.67a1.26,1.26,0,0,0-.24-.83,1.76,1.76,0,0,0-.88-.47v-.49h6.54v.49a1.72,1.72,0,0,0-.88.47,1.21,1.21,0,0,0-.25.83v16.09a1.21,1.21,0,0,0,.25.83,1.88,1.88,0,0,0,.88.48v.5h-7v-.5c.51-.1.77-.32.77-.64a.85.85,0,0,0-.21-.51c-.14-.17-.46-.51-1-1Z"/></g><g class="cls-7"><path class="cls-11" d="M545.48,240.59v11.17a1.26,1.26,0,0,0,.25.84,1.7,1.7,0,0,0,.87.47v.5h-6.54v-.5a1.62,1.62,0,0,0,.87-.45,1.27,1.27,0,0,0,.26-.85v-16.1a1.22,1.22,0,0,0-.25-.82,1.88,1.88,0,0,0-.88-.48v-.49h7.56v.49c-.51.13-.77.36-.77.69a1.54,1.54,0,0,0,.56,1L558,246.52V235.67a1.26,1.26,0,0,0-.24-.83,1.76,1.76,0,0,0-.88-.47v-.49h6.54v.49a1.72,1.72,0,0,0-.88.47,1.21,1.21,0,0,0-.25.83v16.09a1.21,1.21,0,0,0,.25.83,1.88,1.88,0,0,0,.88.48v.5h-7v-.5c.51-.1.77-.32.77-.64a.85.85,0,0,0-.21-.51c-.14-.17-.46-.51-1-1Z"/></g><g class="cls-7"><path class="cls-10" d="M567.51,251.77v-16.1a1.22,1.22,0,0,0-.25-.82,1.88,1.88,0,0,0-.88-.48v-.49h11.55a14.8,14.8,0,0,1,5.68.89,7.9,7.9,0,0,1,4.2,4.19,11.72,11.72,0,0,1,.9,4.76c0,3.37-1,5.91-3,7.65a8.42,8.42,0,0,1-3.19,1.68,17.4,17.4,0,0,1-4.58.52H566.38v-.5a1.62,1.62,0,0,0,.87-.45A1.27,1.27,0,0,0,567.51,251.77Zm4.71-1.77h5q3.46,0,5-1.58a7.54,7.54,0,0,0,0-9.39,4.89,4.89,0,0,0-2-1.21,10.35,10.35,0,0,0-3-.37h-5Z"/></g><g class="cls-7"><path class="cls-11" d="M567.51,251.77v-16.1a1.22,1.22,0,0,0-.25-.82,1.88,1.88,0,0,0-.88-.48v-.49h11.55a14.8,14.8,0,0,1,5.68.89,7.9,7.9,0,0,1,4.2,4.19,11.72,11.72,0,0,1,.9,4.76c0,3.37-1,5.91-3,7.65a8.42,8.42,0,0,1-3.19,1.68,17.4,17.4,0,0,1-4.58.52H566.38v-.5a1.62,1.62,0,0,0,.87-.45A1.27,1.27,0,0,0,567.51,251.77Zm4.71-1.77h5q3.46,0,5-1.58a7.54,7.54,0,0,0,0-9.39,4.89,4.89,0,0,0-2-1.21,10.35,10.35,0,0,0-3-.37h-5Z"/></g><g class="cls-7"><path class="cls-10" d="M622.49,244.94h-5.92a1.2,1.2,0,0,0-.82.24,1.94,1.94,0,0,0-.45.88h-.56v-5.59h.56a1.88,1.88,0,0,0,.45.89,1.19,1.19,0,0,0,.81.24h11.38v.56a1.76,1.76,0,0,0-.87.45,1.21,1.21,0,0,0-.26.83v4.92a1.25,1.25,0,0,0,.25.83,1.75,1.75,0,0,0,.88.46v.44a26.71,26.71,0,0,1-13.25,3.9,15.37,15.37,0,0,1-9.48-2.76,12.37,12.37,0,0,1-.51-18.85q3.9-3.23,10.37-3.23a19.2,19.2,0,0,1,3.88.38,26.51,26.51,0,0,1,4.14,1.27,5.44,5.44,0,0,0,1.7.48,1.43,1.43,0,0,0,.86-.41l.5.27-2.82,5.74-.51-.26a2.15,2.15,0,0,0-.16-.83,2.36,2.36,0,0,0-.64-.62,9.38,9.38,0,0,0-3.14-1.37,14.8,14.8,0,0,0-3.92-.57,9.26,9.26,0,0,0-6.23,2.11,7.86,7.86,0,0,0-2.8,6.3,7.68,7.68,0,0,0,2.73,6.13,9.71,9.71,0,0,0,6.57,2.14,16.67,16.67,0,0,0,3.92-.46,12.57,12.57,0,0,0,3.34-1.25Z"/></g><g class="cls-7"><path class="cls-11" d="M622.49,244.94h-5.92a1.2,1.2,0,0,0-.82.24,1.94,1.94,0,0,0-.45.88h-.56v-5.59h.56a1.88,1.88,0,0,0,.45.89,1.19,1.19,0,0,0,.81.24h11.38v.56a1.76,1.76,0,0,0-.87.45,1.21,1.21,0,0,0-.26.83v4.92a1.25,1.25,0,0,0,.25.83,1.75,1.75,0,0,0,.88.46v.44a26.71,26.71,0,0,1-13.25,3.9,15.37,15.37,0,0,1-9.48-2.76,12.37,12.37,0,0,1-.51-18.85q3.9-3.23,10.37-3.23a19.2,19.2,0,0,1,3.88.38,26.51,26.51,0,0,1,4.14,1.27,5.44,5.44,0,0,0,1.7.48,1.43,1.43,0,0,0,.86-.41l.5.27-2.82,5.74-.51-.26a2.15,2.15,0,0,0-.16-.83,2.36,2.36,0,0,0-.64-.62,9.38,9.38,0,0,0-3.14-1.37,14.8,14.8,0,0,0-3.92-.57,9.26,9.26,0,0,0-6.23,2.11,7.86,7.86,0,0,0-2.8,6.3,7.68,7.68,0,0,0,2.73,6.13,9.71,9.71,0,0,0,6.57,2.14,16.67,16.67,0,0,0,3.92-.46,12.57,12.57,0,0,0,3.34-1.25Z"/></g><g class="cls-7"><path class="cls-10" d="M645.58,248.64h-9.06l-1,2.15a3.17,3.17,0,0,0-.37,1.21c0,.56.38.92,1.13,1.07v.5H629v-.5a1.89,1.89,0,0,0,1-.4,4.18,4.18,0,0,0,.76-1.18L638,236.94a3.38,3.38,0,0,0,.41-1.44c0-.48-.33-.86-1-1.13v-.49H645v.49a1.3,1.3,0,0,0-1,1.2,3.28,3.28,0,0,0,.44,1.42L652,251.1a7.2,7.2,0,0,0,1,1.5,2.13,2.13,0,0,0,1.08.47v.5h-8v-.5c.76-.12,1.14-.48,1.14-1.06a2.93,2.93,0,0,0-.43-1.35Zm-1.42-2.76-3.22-6.33-3.07,6.33Z"/></g><g class="cls-7"><path class="cls-11" d="M645.58,248.64h-9.06l-1,2.15a3.17,3.17,0,0,0-.37,1.21c0,.56.38.92,1.13,1.07v.5H629v-.5a1.89,1.89,0,0,0,1-.4,4.18,4.18,0,0,0,.76-1.18L638,236.94a3.38,3.38,0,0,0,.41-1.44c0-.48-.33-.86-1-1.13v-.49H645v.49a1.3,1.3,0,0,0-1,1.2,3.28,3.28,0,0,0,.44,1.42L652,251.1a7.2,7.2,0,0,0,1,1.5,2.13,2.13,0,0,0,1.08.47v.5h-8v-.5c.76-.12,1.14-.48,1.14-1.06a2.93,2.93,0,0,0-.43-1.35Zm-1.42-2.76-3.22-6.33-3.07,6.33Z"/></g><g class="cls-7"><path class="cls-10" d="M668.48,253.57l-7.18-13v11.15a1.26,1.26,0,0,0,.24.83,1.94,1.94,0,0,0,.88.48v.5h-6.54v-.5a1.62,1.62,0,0,0,.87-.45,1.27,1.27,0,0,0,.26-.85v-16.1a1.26,1.26,0,0,0-.25-.83,1.72,1.72,0,0,0-.88-.47v-.49h8.32v.49a1,1,0,0,0-.83,1,3.7,3.7,0,0,0,.6,1.76l4.91,8.91,5-8.79a4.74,4.74,0,0,0,.84-2c0-.48-.29-.78-.86-.91v-.49h8.1v.49a1.68,1.68,0,0,0-.87.47,1.21,1.21,0,0,0-.25.83v16.09a1.26,1.26,0,0,0,.25.84,1.61,1.61,0,0,0,.87.47v.5h-7v-.5a1.62,1.62,0,0,0,.87-.45,1.27,1.27,0,0,0,.26-.85V240.61Z"/></g><g class="cls-7"><path class="cls-11" d="M668.48,253.57l-7.18-13v11.15a1.26,1.26,0,0,0,.24.83,1.94,1.94,0,0,0,.88.48v.5h-6.54v-.5a1.62,1.62,0,0,0,.87-.45,1.27,1.27,0,0,0,.26-.85v-16.1a1.26,1.26,0,0,0-.25-.83,1.72,1.72,0,0,0-.88-.47v-.49h8.32v.49a1,1,0,0,0-.83,1,3.7,3.7,0,0,0,.6,1.76l4.91,8.91,5-8.79a4.74,4.74,0,0,0,.84-2c0-.48-.29-.78-.86-.91v-.49h8.1v.49a1.68,1.68,0,0,0-.87.47,1.21,1.21,0,0,0-.25.83v16.09a1.26,1.26,0,0,0,.25.84,1.61,1.61,0,0,0,.87.47v.5h-7v-.5a1.62,1.62,0,0,0,.87-.45,1.27,1.27,0,0,0,.26-.85V240.61Z"/></g><g class="cls-7"><path class="cls-10" d="M690.75,245.2V250h12.5a1.26,1.26,0,0,0,.83-.24,1.84,1.84,0,0,0,.47-.89H705v5.82h-.49a1.69,1.69,0,0,0-.46-.87,1.26,1.26,0,0,0-.84-.25H684.91v-.5a1.62,1.62,0,0,0,.87-.45,1.27,1.27,0,0,0,.26-.85v-16.1a1.22,1.22,0,0,0-.25-.82,1.88,1.88,0,0,0-.88-.48v-.49H702.7a1.23,1.23,0,0,0,.85-.25,1.68,1.68,0,0,0,.47-.88h.47v5.82H704a1.72,1.72,0,0,0-.47-.88,1.29,1.29,0,0,0-.85-.24h-12v4.32h7.42a1.21,1.21,0,0,0,.83-.25,1.84,1.84,0,0,0,.48-.87H700v5.67h-.48a1.77,1.77,0,0,0-.46-.87,1.27,1.27,0,0,0-.85-.25Z"/></g><g class="cls-7"><path class="cls-11" d="M690.75,245.2V250h12.5a1.26,1.26,0,0,0,.83-.24,1.84,1.84,0,0,0,.47-.89H705v5.82h-.49a1.69,1.69,0,0,0-.46-.87,1.26,1.26,0,0,0-.84-.25H684.91v-.5a1.62,1.62,0,0,0,.87-.45,1.27,1.27,0,0,0,.26-.85v-16.1a1.22,1.22,0,0,0-.25-.82,1.88,1.88,0,0,0-.88-.48v-.49H702.7a1.23,1.23,0,0,0,.85-.25,1.68,1.68,0,0,0,.47-.88h.47v5.82H704a1.72,1.72,0,0,0-.47-.88,1.29,1.29,0,0,0-.85-.24h-12v4.32h7.42a1.21,1.21,0,0,0,.83-.25,1.84,1.84,0,0,0,.48-.87H700v5.67h-.48a1.77,1.77,0,0,0-.46-.87,1.27,1.27,0,0,0-.85-.25Z"/></g><g class="cls-7"><path class="cls-10" d="M726.75,235.65l-2.37,4.59L724,240a1.19,1.19,0,0,0-.37-.91,7.72,7.72,0,0,0-3-1.48,14.11,14.11,0,0,0-4-.58,8.78,8.78,0,0,0-3,.48c-1.27.45-1.9,1.12-1.9,2a1.26,1.26,0,0,0,.91,1.23,14.54,14.54,0,0,0,3.54.57l2.77.21a13,13,0,0,1,5.54,1.4,5.5,5.5,0,0,1,1.74,1.69,5.53,5.53,0,0,1-1.85,7.72,12.77,12.77,0,0,1-7,1.67,20.67,20.67,0,0,1-8.6-1.88,1.08,1.08,0,0,0-.47-.13.81.81,0,0,0-.65.43l-.44-.18,2-4.82.44.18v.14a1,1,0,0,0,.35.77,7.69,7.69,0,0,0,3,1.35,16.72,16.72,0,0,0,4.27.57,10.43,10.43,0,0,0,3.34-.49c1.22-.4,1.83-1.05,1.83-1.94a1.55,1.55,0,0,0-1.26-1.49,15.27,15.27,0,0,0-3-.48l-2.76-.22a23.92,23.92,0,0,1-3.41-.46,6.77,6.77,0,0,1-2.05-.83,4.84,4.84,0,0,1-1.76-1.91,5.7,5.7,0,0,1-.63-2.66A5.47,5.47,0,0,1,710.4,235a11.83,11.83,0,0,1,6.26-1.54,15.53,15.53,0,0,1,3.77.44,25.23,25.23,0,0,1,4.18,1.58,3,3,0,0,0,1,.33,1.26,1.26,0,0,0,.72-.38Z"/></g><g class="cls-7"><path class="cls-11" d="M726.75,235.65l-2.37,4.59L724,240a1.19,1.19,0,0,0-.37-.91,7.72,7.72,0,0,0-3-1.48,14.11,14.11,0,0,0-4-.58,8.78,8.78,0,0,0-3,.48c-1.27.45-1.9,1.12-1.9,2a1.26,1.26,0,0,0,.91,1.23,14.54,14.54,0,0,0,3.54.57l2.77.21a13,13,0,0,1,5.54,1.4,5.5,5.5,0,0,1,1.74,1.69,5.53,5.53,0,0,1-1.85,7.72,12.77,12.77,0,0,1-7,1.67,20.67,20.67,0,0,1-8.6-1.88,1.08,1.08,0,0,0-.47-.13.81.81,0,0,0-.65.43l-.44-.18,2-4.82.44.18v.14a1,1,0,0,0,.35.77,7.69,7.69,0,0,0,3,1.35,16.72,16.72,0,0,0,4.27.57,10.43,10.43,0,0,0,3.34-.49c1.22-.4,1.83-1.05,1.83-1.94a1.55,1.55,0,0,0-1.26-1.49,15.27,15.27,0,0,0-3-.48l-2.76-.22a23.92,23.92,0,0,1-3.41-.46,6.77,6.77,0,0,1-2.05-.83,4.84,4.84,0,0,1-1.76-1.91,5.7,5.7,0,0,1-.63-2.66A5.47,5.47,0,0,1,710.4,235a11.83,11.83,0,0,1,6.26-1.54,15.53,15.53,0,0,1,3.77.44,25.23,25.23,0,0,1,4.18,1.58,3,3,0,0,0,1,.33,1.26,1.26,0,0,0,.72-.38Z"/></g></g><g class="cls-7"><g class="cls-7"><path class="cls-12" d="M239.87,243.83v7.91a1.22,1.22,0,0,0,.26.82,1.69,1.69,0,0,0,.87.44v.57h-7.49V253a1.8,1.8,0,0,0,.88-.45,1.22,1.22,0,0,0,.25-.81V231.42a1.25,1.25,0,0,0-.25-.83,1.8,1.8,0,0,0-.88-.46v-.56h15a19.7,19.7,0,0,1,4.15.35,7.25,7.25,0,0,1,2.72,1.22,6.05,6.05,0,0,1,1.9,2.35,7.63,7.63,0,0,1,.68,3.2,7.09,7.09,0,0,1-1.3,4.25,6.05,6.05,0,0,1-3,2.23,16,16,0,0,1-5.17.66Zm0-4h8a7.83,7.83,0,0,0,3.36-.51,2.38,2.38,0,0,0,1-1.06,3.56,3.56,0,0,0,0-3.2,2.38,2.38,0,0,0-1-1.06,7.74,7.74,0,0,0-3.36-.51h-8Z"/></g><g class="cls-7"><path class="cls-12" d="M266.19,245.48v6.28a1.26,1.26,0,0,0,.24.83,1.94,1.94,0,0,0,.88.48v.5h-7v-.5a1.62,1.62,0,0,0,.87-.45,1.27,1.27,0,0,0,.26-.85v-16.1a1.22,1.22,0,0,0-.25-.82,1.88,1.88,0,0,0-.88-.48v-.49h12.9a21.79,21.79,0,0,1,3.84.25,6.58,6.58,0,0,1,2.35.93,5,5,0,0,1,2.13,4.53,5.15,5.15,0,0,1-1.31,3.74,8.11,8.11,0,0,1-4.23,1.94l3.73,5.19a12.05,12.05,0,0,0,1.62,2,2.94,2.94,0,0,0,1.38.65v.5h-8.28v-.5c.61-.16.92-.42.92-.79a2.53,2.53,0,0,0-.56-1.17l-3.94-5.63Zm0-3.57h7.1a6.2,6.2,0,0,0,2.39-.35,1.84,1.84,0,0,0,1.09-1.88,1.91,1.91,0,0,0-.77-1.74,5.32,5.32,0,0,0-2.71-.49h-7.1Z"/></g><g class="cls-7"><path class="cls-12" d="M295.48,233.46a12.46,12.46,0,0,1,7.83,2.39,9.55,9.55,0,0,1,3.75,8,9.24,9.24,0,0,1-3.75,7.72,13.89,13.89,0,0,1-15.58,0,9.39,9.39,0,0,1-3.77-7.88,9.28,9.28,0,0,1,3.77-7.87A12.74,12.74,0,0,1,295.48,233.46Zm0,3.72a6.65,6.65,0,0,0-5,1.95,6.78,6.78,0,0,0,0,9.16,7.25,7.25,0,0,0,9.94,0,6.11,6.11,0,0,0,1.78-4.48,6.33,6.33,0,0,0-1.78-4.68A7,7,0,0,0,295.5,237.18Z"/></g><g class="cls-7"><path class="cls-12" d="M327.58,246h-4.49a1.25,1.25,0,0,0-.85.25,1.8,1.8,0,0,0-.47.88h-.47v-5.22h.47a1.81,1.81,0,0,0,.47.87,1.25,1.25,0,0,0,.85.25h9.37v.51a1.65,1.65,0,0,0-.87.51,1.54,1.54,0,0,0-.25.95v4.15a1.26,1.26,0,0,0,.25.84,1.78,1.78,0,0,0,.87.48v.4A23.26,23.26,0,0,1,321.11,254a12.72,12.72,0,0,1-7.91-2.3,9.92,9.92,0,0,1-3.82-7.86,9.69,9.69,0,0,1,2.15-6.19q3.33-4.19,9.88-4.18a20.37,20.37,0,0,1,6.53,1.26,10,10,0,0,0,1.71.49,1.27,1.27,0,0,0,.7-.28l.42.23-2.34,5-.42-.21v-.11c0-.43-.44-.88-1.3-1.33a10.8,10.8,0,0,0-5.17-1.29,7.76,7.76,0,0,0-5.22,1.74,6.17,6.17,0,0,0-2.14,4.93,5.92,5.92,0,0,0,1.95,4.64,8.23,8.23,0,0,0,5.63,1.77,12.21,12.21,0,0,0,5.82-1.28Z"/></g><g class="cls-7"><path class="cls-12" d="M341,245.48v6.28a1.26,1.26,0,0,0,.24.83,1.94,1.94,0,0,0,.88.48v.5h-7v-.5a1.62,1.62,0,0,0,.87-.45,1.27,1.27,0,0,0,.26-.85v-16.1a1.22,1.22,0,0,0-.25-.82,1.88,1.88,0,0,0-.88-.48v-.49H348a21.79,21.79,0,0,1,3.84.25,6.58,6.58,0,0,1,2.35.93,5,5,0,0,1,2.13,4.53,5.15,5.15,0,0,1-1.31,3.74,8.11,8.11,0,0,1-4.23,1.94l3.73,5.19a12.05,12.05,0,0,0,1.62,2,2.94,2.94,0,0,0,1.38.65v.5h-8.28v-.5c.61-.16.92-.42.92-.79a2.53,2.53,0,0,0-.56-1.17l-3.94-5.63Zm0-3.57h7.1a6.2,6.2,0,0,0,2.39-.35,1.84,1.84,0,0,0,1.09-1.88,1.91,1.91,0,0,0-.77-1.74,5.32,5.32,0,0,0-2.71-.49H341Z"/></g><g class="cls-7"><path class="cls-12" d="M375.48,248.64h-9.06l-1,2.15A3.17,3.17,0,0,0,365,252c0,.56.38.92,1.13,1.07v.5h-7.23v-.5a1.89,1.89,0,0,0,1-.4,4.18,4.18,0,0,0,.76-1.18l7.19-14.55a3.38,3.38,0,0,0,.41-1.44c0-.48-.33-.86-1-1.13v-.49h7.65v.49a1.3,1.3,0,0,0-1,1.2,3.28,3.28,0,0,0,.44,1.42l7.46,14.11a7.2,7.2,0,0,0,1,1.5,2.13,2.13,0,0,0,1.07.47v.5h-8v-.5c.76-.12,1.14-.48,1.14-1.06a2.85,2.85,0,0,0-.44-1.35Zm-1.42-2.76-3.22-6.33-3.07,6.33Z"/></g><g class="cls-7"><path class="cls-12" d="M398.38,253.57l-7.18-13v11.15a1.26,1.26,0,0,0,.24.83,1.94,1.94,0,0,0,.88.48v.5h-6.54v-.5a1.62,1.62,0,0,0,.87-.45,1.27,1.27,0,0,0,.26-.85v-16.1a1.26,1.26,0,0,0-.25-.83,1.72,1.72,0,0,0-.88-.47v-.49h8.32v.49a1,1,0,0,0-.83,1,3.7,3.7,0,0,0,.6,1.76l4.91,8.91,5-8.79a4.74,4.74,0,0,0,.84-2c0-.48-.29-.78-.86-.91v-.49h8.1v.49a1.68,1.68,0,0,0-.87.47,1.21,1.21,0,0,0-.25.83v16.09a1.26,1.26,0,0,0,.25.84,1.61,1.61,0,0,0,.87.47v.5h-7v-.5a1.62,1.62,0,0,0,.87-.45,1.27,1.27,0,0,0,.26-.85V240.61Z"/><path class="cls-12" d="M427.53,253.57l-7.18-13v11.15a1.21,1.21,0,0,0,.25.83,1.84,1.84,0,0,0,.87.48v.5h-6.53v-.5a1.62,1.62,0,0,0,.87-.45,1.27,1.27,0,0,0,.25-.85v-16.1a1.21,1.21,0,0,0-.25-.83,1.68,1.68,0,0,0-.87-.47v-.49h8.31v.49a1,1,0,0,0-.82,1,3.78,3.78,0,0,0,.59,1.76l4.92,8.91,4.94-8.79a4.74,4.74,0,0,0,.84-2c0-.48-.28-.78-.86-.91v-.49H441v.49a1.72,1.72,0,0,0-.88.47,1.26,1.26,0,0,0-.25.83v16.09a1.31,1.31,0,0,0,.25.84,1.65,1.65,0,0,0,.88.47v.5h-7v-.5a1.62,1.62,0,0,0,.87-.45,1.27,1.27,0,0,0,.25-.85V240.61Z"/></g><g class="cls-7"><path class="cls-12" d="M449.68,235.67v16.09a1.26,1.26,0,0,0,.24.83,1.94,1.94,0,0,0,.88.48v.5h-7v-.5a1.62,1.62,0,0,0,.87-.45,1.27,1.27,0,0,0,.26-.85v-16.1a1.22,1.22,0,0,0-.25-.82,1.88,1.88,0,0,0-.88-.48v-.49h7v.49a1.76,1.76,0,0,0-.88.47A1.26,1.26,0,0,0,449.68,235.67Z"/></g><g class="cls-7"><path class="cls-12" d="M459.16,240.59v11.17a1.26,1.26,0,0,0,.25.84,1.7,1.7,0,0,0,.87.47v.5h-6.54v-.5a1.62,1.62,0,0,0,.87-.45,1.27,1.27,0,0,0,.26-.85v-16.1a1.22,1.22,0,0,0-.25-.82,1.88,1.88,0,0,0-.88-.48v-.49h7.56v.49c-.51.13-.77.36-.77.69a1.54,1.54,0,0,0,.56,1l10.56,10.48V235.67a1.26,1.26,0,0,0-.24-.83,1.76,1.76,0,0,0-.88-.47v-.49h6.54v.49a1.72,1.72,0,0,0-.88.47,1.21,1.21,0,0,0-.25.83v16.09a1.21,1.21,0,0,0,.25.83,1.88,1.88,0,0,0,.88.48v.5H470v-.5c.51-.1.77-.32.77-.64a.85.85,0,0,0-.21-.51c-.14-.17-.46-.51-1-1Z"/></g><g class="cls-7"><path class="cls-12" d="M497.69,246H493.2a1.25,1.25,0,0,0-.85.25,1.8,1.8,0,0,0-.47.88h-.47v-5.22h.47a1.81,1.81,0,0,0,.47.87,1.25,1.25,0,0,0,.85.25h9.37v.51a1.65,1.65,0,0,0-.87.51,1.54,1.54,0,0,0-.25.95v4.15a1.26,1.26,0,0,0,.25.84,1.78,1.78,0,0,0,.87.48v.4A23.29,23.29,0,0,1,491.22,254a12.72,12.72,0,0,1-7.91-2.3,9.92,9.92,0,0,1-3.82-7.86,9.69,9.69,0,0,1,2.15-6.19q3.33-4.19,9.88-4.18a20.42,20.42,0,0,1,6.53,1.26,10,10,0,0,0,1.71.49,1.27,1.27,0,0,0,.7-.28l.42.23-2.34,5-.42-.21v-.11c0-.43-.44-.88-1.3-1.33a10.8,10.8,0,0,0-5.17-1.29,7.76,7.76,0,0,0-5.22,1.74,6.17,6.17,0,0,0-2.14,4.93,5.92,5.92,0,0,0,1.95,4.64,8.23,8.23,0,0,0,5.63,1.77,12.21,12.21,0,0,0,5.82-1.28Z"/></g><g class="cls-7"><path class="cls-12" d="M529.76,248.64H520.7l-1,2.15a3.17,3.17,0,0,0-.37,1.21c0,.56.38.92,1.13,1.07v.5h-7.23v-.5a1.89,1.89,0,0,0,1-.4,4.18,4.18,0,0,0,.76-1.18l7.19-14.55a3.38,3.38,0,0,0,.41-1.44c0-.48-.33-.86-1-1.13v-.49h7.65v.49a1.3,1.3,0,0,0-1,1.2,3.28,3.28,0,0,0,.44,1.42l7.46,14.11a7.2,7.2,0,0,0,1,1.5,2.13,2.13,0,0,0,1.08.47v.5h-8.05v-.5c.76-.12,1.14-.48,1.14-1.06a2.93,2.93,0,0,0-.43-1.35Zm-1.42-2.76-3.22-6.33-3.07,6.33Z"/></g><g class="cls-7"><path class="cls-12" d="M545.48,240.59v11.17a1.26,1.26,0,0,0,.25.84,1.7,1.7,0,0,0,.87.47v.5h-6.54v-.5a1.62,1.62,0,0,0,.87-.45,1.27,1.27,0,0,0,.26-.85v-16.1a1.22,1.22,0,0,0-.25-.82,1.88,1.88,0,0,0-.88-.48v-.49h7.56v.49c-.51.13-.77.36-.77.69a1.54,1.54,0,0,0,.56,1L558,246.52V235.67a1.26,1.26,0,0,0-.24-.83,1.76,1.76,0,0,0-.88-.47v-.49h6.54v.49a1.72,1.72,0,0,0-.88.47,1.21,1.21,0,0,0-.25.83v16.09a1.21,1.21,0,0,0,.25.83,1.88,1.88,0,0,0,.88.48v.5h-7v-.5c.51-.1.77-.32.77-.64a.85.85,0,0,0-.21-.51c-.14-.17-.46-.51-1-1Z"/></g><g class="cls-7"><path class="cls-12" d="M567.51,251.77v-16.1a1.22,1.22,0,0,0-.25-.82,1.88,1.88,0,0,0-.88-.48v-.49h11.55a14.8,14.8,0,0,1,5.68.89,7.9,7.9,0,0,1,4.2,4.19,11.72,11.72,0,0,1,.9,4.76c0,3.37-1,5.91-3,7.65a8.42,8.42,0,0,1-3.19,1.68,17.4,17.4,0,0,1-4.58.52H566.38v-.5a1.62,1.62,0,0,0,.87-.45A1.27,1.27,0,0,0,567.51,251.77Zm4.71-1.77h5q3.46,0,5-1.58a7.54,7.54,0,0,0,0-9.39,4.89,4.89,0,0,0-2-1.21,10.35,10.35,0,0,0-3-.37h-5Z"/></g><g class="cls-7"><path class="cls-12" d="M622.49,244.94h-5.92a1.2,1.2,0,0,0-.82.24,1.94,1.94,0,0,0-.45.88h-.56v-5.59h.56a1.88,1.88,0,0,0,.45.89,1.19,1.19,0,0,0,.81.24h11.38v.56a1.76,1.76,0,0,0-.87.45,1.21,1.21,0,0,0-.26.83v4.92a1.25,1.25,0,0,0,.25.83,1.75,1.75,0,0,0,.88.46v.44a26.71,26.71,0,0,1-13.25,3.9,15.37,15.37,0,0,1-9.48-2.76,12.37,12.37,0,0,1-.51-18.85q3.9-3.23,10.37-3.23a19.2,19.2,0,0,1,3.88.38,26.51,26.51,0,0,1,4.14,1.27,5.44,5.44,0,0,0,1.7.48,1.43,1.43,0,0,0,.86-.41l.5.27-2.82,5.74-.51-.26a2.15,2.15,0,0,0-.16-.83,2.36,2.36,0,0,0-.64-.62,9.38,9.38,0,0,0-3.14-1.37,14.8,14.8,0,0,0-3.92-.57,9.26,9.26,0,0,0-6.23,2.11,7.86,7.86,0,0,0-2.8,6.3,7.68,7.68,0,0,0,2.73,6.13,9.71,9.71,0,0,0,6.57,2.14,16.67,16.67,0,0,0,3.92-.46,12.57,12.57,0,0,0,3.34-1.25Z"/></g><g class="cls-7"><path class="cls-12" d="M645.58,248.64h-9.06l-1,2.15a3.17,3.17,0,0,0-.37,1.21c0,.56.38.92,1.13,1.07v.5H629v-.5a1.89,1.89,0,0,0,1-.4,4.18,4.18,0,0,0,.76-1.18L638,236.94a3.38,3.38,0,0,0,.41-1.44c0-.48-.33-.86-1-1.13v-.49H645v.49a1.3,1.3,0,0,0-1,1.2,3.28,3.28,0,0,0,.44,1.42L652,251.1a7.2,7.2,0,0,0,1,1.5,2.13,2.13,0,0,0,1.08.47v.5h-8v-.5c.76-.12,1.14-.48,1.14-1.06a2.93,2.93,0,0,0-.43-1.35Zm-1.42-2.76-3.22-6.33-3.07,6.33Z"/></g><g class="cls-7"><path class="cls-12" d="M668.48,253.57l-7.18-13v11.15a1.26,1.26,0,0,0,.24.83,1.94,1.94,0,0,0,.88.48v.5h-6.54v-.5a1.62,1.62,0,0,0,.87-.45,1.27,1.27,0,0,0,.26-.85v-16.1a1.26,1.26,0,0,0-.25-.83,1.72,1.72,0,0,0-.88-.47v-.49h8.32v.49a1,1,0,0,0-.83,1,3.7,3.7,0,0,0,.6,1.76l4.91,8.91,5-8.79a4.74,4.74,0,0,0,.84-2c0-.48-.29-.78-.86-.91v-.49h8.1v.49a1.68,1.68,0,0,0-.87.47,1.21,1.21,0,0,0-.25.83v16.09a1.26,1.26,0,0,0,.25.84,1.61,1.61,0,0,0,.87.47v.5h-7v-.5a1.62,1.62,0,0,0,.87-.45,1.27,1.27,0,0,0,.26-.85V240.61Z"/></g><g class="cls-7"><path class="cls-12" d="M690.75,245.2V250h12.5a1.26,1.26,0,0,0,.83-.24,1.84,1.84,0,0,0,.47-.89H705v5.82h-.49a1.69,1.69,0,0,0-.46-.87,1.26,1.26,0,0,0-.84-.25H684.91v-.5a1.62,1.62,0,0,0,.87-.45,1.27,1.27,0,0,0,.26-.85v-16.1a1.22,1.22,0,0,0-.25-.82,1.88,1.88,0,0,0-.88-.48v-.49H702.7a1.23,1.23,0,0,0,.85-.25,1.68,1.68,0,0,0,.47-.88h.47v5.82H704a1.72,1.72,0,0,0-.47-.88,1.29,1.29,0,0,0-.85-.24h-12v4.32h7.42a1.21,1.21,0,0,0,.83-.25,1.84,1.84,0,0,0,.48-.87H700v5.67h-.48a1.77,1.77,0,0,0-.46-.87,1.27,1.27,0,0,0-.85-.25Z"/></g><g class="cls-7"><path class="cls-12" d="M726.75,235.65l-2.37,4.59L724,240a1.19,1.19,0,0,0-.37-.91,7.72,7.72,0,0,0-3-1.48,14.11,14.11,0,0,0-4-.58,8.78,8.78,0,0,0-3,.48c-1.27.45-1.9,1.12-1.9,2a1.26,1.26,0,0,0,.91,1.23,14.54,14.54,0,0,0,3.54.57l2.77.21a13,13,0,0,1,5.54,1.4,5.5,5.5,0,0,1,1.74,1.69,5.53,5.53,0,0,1-1.85,7.72,12.77,12.77,0,0,1-7,1.67,20.67,20.67,0,0,1-8.6-1.88,1.08,1.08,0,0,0-.47-.13.81.81,0,0,0-.65.43l-.44-.18,2-4.82.44.18v.14a1,1,0,0,0,.35.77,7.69,7.69,0,0,0,3,1.35,16.72,16.72,0,0,0,4.27.57,10.43,10.43,0,0,0,3.34-.49c1.22-.4,1.83-1.05,1.83-1.94a1.55,1.55,0,0,0-1.26-1.49,15.27,15.27,0,0,0-3-.48l-2.76-.22a23.92,23.92,0,0,1-3.41-.46,6.77,6.77,0,0,1-2.05-.83,4.84,4.84,0,0,1-1.76-1.91,5.7,5.7,0,0,1-.63-2.66A5.47,5.47,0,0,1,710.4,235a11.83,11.83,0,0,1,6.26-1.54,15.53,15.53,0,0,1,3.77.44,25.23,25.23,0,0,1,4.18,1.58,3,3,0,0,0,1,.33,1.26,1.26,0,0,0,.72-.38Z"/></g></g><polygon class="cls-10" points="944.31 222.88 948.31 218.88 11.31 218.88 15.31 222.88 944.31 222.88"/><polygon class="cls-10" points="15.31 263.88 11.31 267.88 948.31 267.88 944.31 263.88 15.31 263.88"/></g></g></g></svg>