<svg xmlns="http://www.w3.org/2000/svg" viewBox="0 0 1787 1787.38"><defs><style>.cls-1{fill:#00b456;opacity:0.75;}</style></defs><title>Asset 1</title><g id="Layer_2" data-name="Layer 2"><g id="New_Layer" data-name="New Layer"><path class="cls-1" d="M1104,893.4q.1,3.4.11,6.84c0,111.34-87.61,202.22-197.65,207.46q-5,.24-10,.24h-2l-7.77,0c-74.94,8.23-151.46-2.7-228-13.64-229.56-21.86-448.19-92.91-658.1-191.1L0,900.24c0,304.88,247.16,552,552,552s552-247.16,552-552"/><path class="cls-1" d="M893.63,683.41q3.4-.1,6.84-.11c111.34,0,202.22,87.61,207.46,197.65q.24,5,.24,10v2q0,3.9,0,7.77c8.23,74.94-2.7,151.46-13.64,228-21.86,229.56-92.91,448.19-191.1,658.1l-2.93.52c304.88,0,552-247.15,552-552s-247.16-552-552-552"/><path class="cls-1" d="M683,894.54q-.1-3.4-.11-6.84c0-111.34,87.61-202.22,197.65-207.46q5-.24,10-.24h2l7.77,0c74.94-8.22,151.46,2.71,228,13.64,229.56,21.87,448.19,92.92,658.1,191.11l.52,2.93c0-304.89-247.16-552-552-552s-552,247.15-552,552"/><path class="cls-1" d="M893,1104q-3.4.1-6.84.11c-111.34,0-202.22-87.61-207.46-197.65q-.24-5-.24-10v-2q0-3.89,0-7.77c-8.22-74.94,2.71-151.46,13.64-228C714,429.06,785,210.43,883.22.52L886.15,0c-304.89,0-552,247.16-552,552s247.16,552,552.05,552"/><path class="cls-1" d="M745.63,746.24q2.34-2.49,4.76-4.91c78.73-78.73,204.94-81.05,286.46-6.94q3.7,3.36,7.27,6.94l1.43,1.42q2.75,2.75,5.47,5.51c58.81,47.17,105.19,109,151.56,170.85,146.87,177.78,251.22,382.62,330.22,600.48l-1.7,2.44c215.58-215.59,215.58-565.12,0-780.7s-565.12-215.59-780.71,0"/><path class="cls-1" d="M745.89,1043.46c-1.66-1.56-3.3-3.14-4.92-4.76-78.73-78.73-81-204.94-6.94-286.46q3.38-3.69,6.94-7.27l1.43-1.42c1.83-1.84,3.67-3.66,5.51-5.48,47.17-58.8,109-105.18,170.84-151.56,177.79-146.87,382.63-251.22,600.49-330.21l2.43,1.7C1306.09,42.41,956.56,42.41,741,258s-215.58,565.11,0,780.7"/><path class="cls-1" d="M1044.09,1043.09q-2.33,2.48-4.76,4.91c-78.73,78.73-204.93,81-286.45,6.94q-3.71-3.36-7.28-6.94l-1.42-1.42c-1.83-1.84-3.66-3.67-5.48-5.51-58.8-47.18-105.18-109-151.56-170.85C440.28,692.43,335.93,487.6,256.93,269.74l1.7-2.44C43,482.88,43,832.42,258.63,1048s565.12,215.59,780.7,0"/><path class="cls-1" d="M1043.72,746.53c1.66,1.56,3.3,3.14,4.92,4.76,78.73,78.73,81,204.94,6.93,286.46q-3.36,3.69-6.93,7.27l-1.43,1.43q-2.74,2.74-5.51,5.47c-47.17,58.8-109,105.18-170.85,151.56C693.07,1350.35,488.23,1454.7,270.37,1533.7l-2.44-1.7c215.59,215.58,565.12,215.58,780.71,0s215.58-565.12,0-780.71"/></g></g></svg>