<?xml version="1.0" encoding="utf-8"?>
<!-- Generator: Adobe Illustrator 22.1.0, SVG Export Plug-In . SVG Version: 6.00 Build 0)  -->
<svg version="1.1" id="Layer_1" xmlns="http://www.w3.org/2000/svg" xmlns:xlink="http://www.w3.org/1999/xlink" x="0px" y="0px"
	 viewBox="0 0 1366 768" style="enable-background:new 0 0 1366 768;" xml:space="preserve">
<style type="text/css">
	.st0{clip-path:url(#SVGID_2_);fill:url(#SVGID_3_);}
	.st1{clip-path:url(#SVGID_2_);fill:url(#SVGID_4_);}
	.st2{clip-path:url(#SVGID_2_);fill:url(#SVGID_5_);}
	.st3{clip-path:url(#SVGID_2_);fill:url(#SVGID_6_);}
	.st4{clip-path:url(#SVGID_2_);fill:url(#SVGID_7_);}
	.st5{clip-path:url(#SVGID_2_);fill:url(#SVGID_8_);}
	.st6{clip-path:url(#SVGID_2_);fill:url(#SVGID_9_);}
	.st7{clip-path:url(#SVGID_2_);fill:url(#SVGID_10_);}
	.st8{clip-path:url(#SVGID_2_);fill:url(#SVGID_11_);}
	.st9{clip-path:url(#SVGID_2_);fill:url(#SVGID_12_);}
	.st10{clip-path:url(#SVGID_2_);fill:url(#SVGID_13_);}
	.st11{clip-path:url(#SVGID_2_);fill:url(#SVGID_14_);}
	.st12{clip-path:url(#SVGID_2_);fill:url(#SVGID_15_);}
	.st13{clip-path:url(#SVGID_2_);fill:url(#SVGID_16_);}
	.st14{clip-path:url(#SVGID_2_);fill:url(#SVGID_17_);}
	.st15{clip-path:url(#SVGID_2_);fill:url(#SVGID_18_);}
	.st16{clip-path:url(#SVGID_2_);fill:url(#SVGID_19_);}
	.st17{clip-path:url(#SVGID_2_);fill:url(#SVGID_20_);}
	.st18{clip-path:url(#SVGID_2_);fill:url(#SVGID_21_);}
	.st19{clip-path:url(#SVGID_2_);fill:url(#SVGID_22_);}
	.st20{clip-path:url(#SVGID_2_);fill:url(#SVGID_23_);}
	.st21{clip-path:url(#SVGID_2_);fill:url(#SVGID_24_);}
	.st22{clip-path:url(#SVGID_2_);fill:url(#SVGID_25_);}
	.st23{clip-path:url(#SVGID_2_);fill:url(#SVGID_26_);}
	.st24{clip-path:url(#SVGID_2_);fill:url(#SVGID_27_);}
	.st25{clip-path:url(#SVGID_2_);fill:url(#SVGID_28_);}
	.st26{clip-path:url(#SVGID_2_);fill:url(#SVGID_29_);}
	.st27{clip-path:url(#SVGID_2_);fill:url(#SVGID_30_);}
	.st28{clip-path:url(#SVGID_2_);fill:url(#SVGID_31_);}
	.st29{clip-path:url(#SVGID_2_);fill:url(#SVGID_32_);}
	.st30{clip-path:url(#SVGID_2_);fill:url(#SVGID_33_);}
	.st31{clip-path:url(#SVGID_2_);fill:#FFFFFF;}
	.st32{opacity:0.9;fill:url(#SVGID_34_);stroke:#FFFFFF;stroke-width:6;stroke-miterlimit:10;}
	.st33{fill:#FFFFFF;}
	.st34{fill:none;stroke:#FFFFFF;stroke-width:6;stroke-miterlimit:10;}
	.st35{opacity:0.9;}
	.st36{fill:url(#SVGID_35_);stroke:#FFFFFF;stroke-width:7;stroke-miterlimit:10;}
	.st37{fill:url(#SVGID_36_);stroke:#FFFFFF;stroke-width:7;stroke-miterlimit:10;}
</style>
<g>
	<defs>
		<rect id="SVGID_1_" width="1366" height="768"/>
	</defs>
	<clipPath id="SVGID_2_">
		<use xlink:href="#SVGID_1_"  style="overflow:visible;"/>
	</clipPath>
	
		<radialGradient id="SVGID_3_" cx="546" cy="379.4874" r="909.8207" gradientTransform="matrix(1 0 0 2 0 -379.4874)" gradientUnits="userSpaceOnUse">
		<stop  offset="0" style="stop-color:#00B456"/>
		<stop  offset="1" style="stop-color:#005A2B"/>
	</radialGradient>
	<ellipse class="st0" cx="546" cy="379.5" rx="909" ry="910.6"/>
	<radialGradient id="SVGID_4_" cx="588.6508" cy="373.1882" r="801.7706" gradientUnits="userSpaceOnUse">
		<stop  offset="0" style="stop-color:#000000"/>
		<stop  offset="1" style="stop-color:#FFFFFF"/>
	</radialGradient>
	<ellipse class="st1" cx="588.7" cy="373.2" rx="801" ry="802.5"/>
	
		<radialGradient id="SVGID_5_" cx="636.7455" cy="389.3039" r="699.1692" gradientTransform="matrix(1 0 0 2 0 -389.3039)" gradientUnits="userSpaceOnUse">
		<stop  offset="0" style="stop-color:#00B456"/>
		<stop  offset="1" style="stop-color:#005A2B"/>
	</radialGradient>
	<ellipse class="st2" cx="636.7" cy="389.3" rx="698.5" ry="699.8"/>
	<radialGradient id="SVGID_6_" cx="663.9586" cy="402.8016" r="610.8469" gradientUnits="userSpaceOnUse">
		<stop  offset="0" style="stop-color:#000000"/>
		<stop  offset="1" style="stop-color:#FFFFFF"/>
	</radialGradient>
	<ellipse class="st3" cx="664" cy="402.8" rx="610.3" ry="611.4"/>
	
		<radialGradient id="SVGID_7_" cx="696.6036" cy="401.041" r="543.739" gradientTransform="matrix(1 0 0 2 0 -401.041)" gradientUnits="userSpaceOnUse">
		<stop  offset="0" style="stop-color:#00B456"/>
		<stop  offset="1" style="stop-color:#005A2B"/>
	</radialGradient>
	<ellipse class="st4" cx="696.6" cy="401" rx="543.2" ry="544.2"/>
	<radialGradient id="SVGID_8_" cx="734.8605" cy="393.3758" r="459.4978" gradientUnits="userSpaceOnUse">
		<stop  offset="0" style="stop-color:#000000"/>
		<stop  offset="1" style="stop-color:#FFFFFF"/>
	</radialGradient>
	<ellipse class="st5" cx="734.9" cy="393.4" rx="459.1" ry="459.9"/>
	
		<radialGradient id="SVGID_9_" cx="771.9053" cy="390.2642" r="382.2324" gradientTransform="matrix(1 0 0 2 0 -390.2642)" gradientUnits="userSpaceOnUse">
		<stop  offset="0" style="stop-color:#00B456"/>
		<stop  offset="1" style="stop-color:#005A2B"/>
	</radialGradient>
	<ellipse class="st6" cx="771.9" cy="390.3" rx="381.9" ry="382.6"/>
	<radialGradient id="SVGID_10_" cx="798.7988" cy="384.8758" r="323.0133" gradientUnits="userSpaceOnUse">
		<stop  offset="0" style="stop-color:#000000"/>
		<stop  offset="1" style="stop-color:#FFFFFF"/>
	</radialGradient>
	<ellipse class="st7" cx="798.8" cy="384.9" rx="322.7" ry="323.3"/>
	
		<radialGradient id="SVGID_11_" cx="794.9514" cy="389.3321" r="277.0445" gradientTransform="matrix(1 0 0 2 0 -389.3321)" gradientUnits="userSpaceOnUse">
		<stop  offset="0" style="stop-color:#00B456"/>
		<stop  offset="1" style="stop-color:#005A2B"/>
	</radialGradient>
	<ellipse class="st8" cx="795" cy="389.3" rx="276.8" ry="277.3"/>
	<radialGradient id="SVGID_12_" cx="781.964" cy="387.414" r="244.1427" gradientUnits="userSpaceOnUse">
		<stop  offset="0" style="stop-color:#000000"/>
		<stop  offset="1" style="stop-color:#FFFFFF"/>
	</radialGradient>
	<ellipse class="st9" cx="782" cy="387.4" rx="243.9" ry="244.4"/>
	
		<radialGradient id="SVGID_13_" cx="767.3189" cy="392.3213" r="212.9002" gradientTransform="matrix(1 0 0 2 0 -392.3213)" gradientUnits="userSpaceOnUse">
		<stop  offset="0" style="stop-color:#00B456"/>
		<stop  offset="1" style="stop-color:#005A2B"/>
	</radialGradient>
	<ellipse class="st10" cx="767.3" cy="392.3" rx="212.7" ry="213.1"/>
	<radialGradient id="SVGID_14_" cx="759.0324" cy="396.4314" r="186.0056" gradientUnits="userSpaceOnUse">
		<stop  offset="0" style="stop-color:#000000"/>
		<stop  offset="1" style="stop-color:#FFFFFF"/>
	</radialGradient>
	<ellipse class="st11" cx="759" cy="396.4" rx="185.8" ry="186.2"/>
	
		<radialGradient id="SVGID_15_" cx="749.0919" cy="395.8953" r="165.571" gradientTransform="matrix(1 0 0 2 0 -395.8953)" gradientUnits="userSpaceOnUse">
		<stop  offset="0" style="stop-color:#00B456"/>
		<stop  offset="1" style="stop-color:#005A2B"/>
	</radialGradient>
	<ellipse class="st12" cx="749.1" cy="395.9" rx="165.4" ry="165.7"/>
	<radialGradient id="SVGID_16_" cx="737.4425" cy="393.5612" r="139.9191" gradientUnits="userSpaceOnUse">
		<stop  offset="0" style="stop-color:#000000"/>
		<stop  offset="1" style="stop-color:#FFFFFF"/>
	</radialGradient>
	<ellipse class="st13" cx="737.4" cy="393.6" rx="139.8" ry="140"/>
	
		<radialGradient id="SVGID_17_" cx="726.1622" cy="392.6137" r="116.3915" gradientTransform="matrix(1 0 0 2 0 -392.6137)" gradientUnits="userSpaceOnUse">
		<stop  offset="0" style="stop-color:#00B456"/>
		<stop  offset="1" style="stop-color:#005A2B"/>
	</radialGradient>
	<ellipse class="st14" cx="726.2" cy="392.6" rx="116.3" ry="116.5"/>
	<radialGradient id="SVGID_18_" cx="717.973" cy="390.9729" r="98.359" gradientUnits="userSpaceOnUse">
		<stop  offset="0" style="stop-color:#000000"/>
		<stop  offset="1" style="stop-color:#FFFFFF"/>
	</radialGradient>
	<ellipse class="st15" cx="718" cy="391" rx="98.3" ry="98.4"/>
	
		<radialGradient id="SVGID_19_" cx="721.061" cy="393.3428" r="83.2816" gradientTransform="matrix(1 0 0 2 0 -393.3428)" gradientUnits="userSpaceOnUse">
		<stop  offset="0" style="stop-color:#00B456"/>
		<stop  offset="1" style="stop-color:#005A2B"/>
	</radialGradient>
	<circle class="st16" cx="721.1" cy="393.3" r="83.3"/>
	<radialGradient id="SVGID_20_" cx="717.1534" cy="392.7667" r="73.3911" gradientUnits="userSpaceOnUse">
		<stop  offset="0" style="stop-color:#000000"/>
		<stop  offset="1" style="stop-color:#FFFFFF"/>
	</radialGradient>
	<circle class="st17" cx="717.2" cy="392.8" r="73.4"/>
	
		<radialGradient id="SVGID_21_" cx="712.747" cy="394.2405" r="63.9994" gradientTransform="matrix(1 0 0 2 0 -394.2405)" gradientUnits="userSpaceOnUse">
		<stop  offset="0" style="stop-color:#00B456"/>
		<stop  offset="1" style="stop-color:#005A2B"/>
	</radialGradient>
	<circle class="st18" cx="712.7" cy="394.2" r="64"/>
	<radialGradient id="SVGID_22_" cx="710.2538" cy="395.475" r="55.9147" gradientUnits="userSpaceOnUse">
		<stop  offset="0" style="stop-color:#000000"/>
		<stop  offset="1" style="stop-color:#FFFFFF"/>
	</radialGradient>
	<circle class="st19" cx="710.3" cy="395.5" r="55.9"/>
	
		<radialGradient id="SVGID_23_" cx="707.2629" cy="395.314" r="49.7719" gradientTransform="matrix(1 0 0 2 0 -395.314)" gradientUnits="userSpaceOnUse">
		<stop  offset="0" style="stop-color:#00B456"/>
		<stop  offset="1" style="stop-color:#005A2B"/>
	</radialGradient>
	<circle class="st20" cx="707.3" cy="395.3" r="49.8"/>
	<radialGradient id="SVGID_24_" cx="703.7579" cy="394.6129" r="42.0607" gradientUnits="userSpaceOnUse">
		<stop  offset="0" style="stop-color:#000000"/>
		<stop  offset="1" style="stop-color:#FFFFFF"/>
	</radialGradient>
	<circle class="st21" cx="703.8" cy="394.6" r="42.1"/>
	
		<radialGradient id="SVGID_25_" cx="700.3638" cy="394.3284" r="34.9881" gradientTransform="matrix(1 0 0 2 0 -394.3284)" gradientUnits="userSpaceOnUse">
		<stop  offset="0" style="stop-color:#00B456"/>
		<stop  offset="1" style="stop-color:#005A2B"/>
	</radialGradient>
	<circle class="st22" cx="700.4" cy="394.3" r="35"/>
	<radialGradient id="SVGID_26_" cx="697.8999" cy="393.8356" r="29.5674" gradientUnits="userSpaceOnUse">
		<stop  offset="0" style="stop-color:#000000"/>
		<stop  offset="1" style="stop-color:#FFFFFF"/>
	</radialGradient>
	<circle class="st23" cx="697.9" cy="393.8" r="29.6"/>
	
		<radialGradient id="SVGID_27_" cx="698.2524" cy="394.2431" r="25.3596" gradientTransform="matrix(1 0 0 2 0 -394.2431)" gradientUnits="userSpaceOnUse">
		<stop  offset="0" style="stop-color:#00B456"/>
		<stop  offset="1" style="stop-color:#005A2B"/>
	</radialGradient>
	<circle class="st24" cx="698.3" cy="394.2" r="25.4"/>
	<radialGradient id="SVGID_28_" cx="699.4423" cy="394.0677" r="22.3479" gradientUnits="userSpaceOnUse">
		<stop  offset="0" style="stop-color:#000000"/>
		<stop  offset="1" style="stop-color:#FFFFFF"/>
	</radialGradient>
	<circle class="st25" cx="699.4" cy="394.1" r="22.3"/>
	
		<radialGradient id="SVGID_29_" cx="700.7841" cy="394.5165" r="19.4881" gradientTransform="matrix(1 0 0 2 0 -394.5165)" gradientUnits="userSpaceOnUse">
		<stop  offset="0" style="stop-color:#00B456"/>
		<stop  offset="1" style="stop-color:#005A2B"/>
	</radialGradient>
	<circle class="st26" cx="700.8" cy="394.5" r="19.5"/>
	<radialGradient id="SVGID_30_" cx="701.5432" cy="394.8924" r="17.0263" gradientUnits="userSpaceOnUse">
		<stop  offset="0" style="stop-color:#000000"/>
		<stop  offset="1" style="stop-color:#FFFFFF"/>
	</radialGradient>
	<circle class="st27" cx="701.5" cy="394.9" r="17"/>
	
		<radialGradient id="SVGID_31_" cx="702.454" cy="394.8434" r="15.1558" gradientTransform="matrix(1 0 0 2 0 -394.8434)" gradientUnits="userSpaceOnUse">
		<stop  offset="0" style="stop-color:#00B456"/>
		<stop  offset="1" style="stop-color:#005A2B"/>
	</radialGradient>
	<circle class="st28" cx="702.5" cy="394.8" r="15.2"/>
	<radialGradient id="SVGID_32_" cx="703.5213" cy="394.6299" r="12.8077" gradientUnits="userSpaceOnUse">
		<stop  offset="0" style="stop-color:#000000"/>
		<stop  offset="1" style="stop-color:#FFFFFF"/>
	</radialGradient>
	<circle class="st29" cx="703.5" cy="394.6" r="12.8"/>
	
		<radialGradient id="SVGID_33_" cx="704.5548" cy="394.5432" r="10.654" gradientTransform="matrix(1 0 0 2 0 -394.5432)" gradientUnits="userSpaceOnUse">
		<stop  offset="0" style="stop-color:#00B456"/>
		<stop  offset="1" style="stop-color:#005A2B"/>
	</radialGradient>
	<circle class="st30" cx="704.6" cy="394.5" r="10.7"/>
	<circle class="st31" cx="705.3" cy="394.4" r="9"/>
</g>
<g>
	<g>
		<linearGradient id="SVGID_34_" gradientUnits="userSpaceOnUse" x1="125.2246" y1="575.6479" x2="514.3258" y2="186.5467">
			<stop  offset="0" style="stop-color:#002D16"/>
			<stop  offset="1" style="stop-color:#005A2B"/>
		</linearGradient>
		<path class="st32" d="M579.9,496.2l-453.9,69.7c-11.1,1.7-20.1-5.9-20.1-17V218.6c0-11.1,9-18.9,20.1-17.4l453.9,60
			c11.1,1.5,20.1,8.2,20.1,15.1v204.5C600,487.6,591,494.5,579.9,496.2z"/>
		<path class="st33" d="M582.7,281c0,4.7-6.1,8-13.6,7.3s-13.6-5.3-13.6-10.2s6.1-8.2,13.6-7.3C576.6,271.7,582.7,276.3,582.7,281z"
			/>
		<line class="st34" x1="106" y1="260.3" x2="600" y2="302"/>
		<path class="st33" d="M542,276.6c0,5-6.1,8.4-13.6,7.7c-7.5-0.7-13.6-5.5-13.6-10.6c0-5.1,6.1-8.6,13.6-7.7
			C535.9,266.9,542,271.6,542,276.6z"/>
		<path class="st33" d="M501.2,272.2c0,5.2-6.1,8.8-13.6,8.1c-7.5-0.7-13.6-5.7-13.6-11.1c0-5.4,6.1-9,13.6-8.1
			C495.1,262,501.2,267,501.2,272.2z"/>
		<g>
			<path class="st33" d="M237.3,400.5l56.6,18.1v15.2l-74-27v-12l74-30.8V379L237.3,400.5z"/>
			<path class="st33" d="M332.9,455.3l-14.4,1.1l55-117.9l14.3,0.4L332.9,455.3z"/>
			<path class="st33" d="M474.4,393.9l-59.8-16.3v-13.1l77.2,24.4v9.3l-77.2,28.5v-13.2L474.4,393.9z"/>
		</g>
	</g>
</g>
<g>
	<g>
		<g class="st35">
			<linearGradient id="SVGID_35_" gradientUnits="userSpaceOnUse" x1="935.5" y1="388.4251" x2="1189" y2="388.4251">
				<stop  offset="0" style="stop-color:#002D16"/>
				<stop  offset="1" style="stop-color:#005A2B"/>
			</linearGradient>
			<path class="st36" d="M1131.5,224.4l-196,33.6v239l253.5,55.5V265.2L1131.5,224.4z M1132.8,270.8v-42.3l50.7,36.5L1132.8,270.8z"
				/>
			<linearGradient id="SVGID_36_" gradientUnits="userSpaceOnUse" x1="1132.8075" y1="249.6152" x2="1183.5074" y2="249.6152">
				<stop  offset="0" style="stop-color:#002D16"/>
				<stop  offset="1" style="stop-color:#005A2B"/>
			</linearGradient>
			<polygon class="st37" points="1132.8,270.8 1183.5,265 1132.8,228.5 			"/>
		</g>
		<g>
			<path class="st33" d="M963.9,274.6c0,1.3-0.3,2.3-0.9,3.1c-0.6,0.7-1.6,1.2-2.9,1.3c-1.3,0.2-2.2,0-2.8-0.6
				c-0.6-0.5-0.9-1.4-1-2.7v-1.5c0-1.3,0.3-2.3,0.9-3c0.6-0.7,1.6-1.2,2.9-1.4c1.3-0.2,2.2,0,2.9,0.5c0.6,0.5,0.9,1.4,0.9,2.7V274.6
				z M962.4,273.3c0-1-0.2-1.6-0.5-2c-0.4-0.4-0.9-0.5-1.7-0.4c-0.8,0.1-1.4,0.4-1.7,0.9c-0.4,0.5-0.5,1.2-0.6,2.1v1.8
				c0,1,0.2,1.6,0.6,2c0.4,0.4,0.9,0.6,1.7,0.5c0.8-0.1,1.3-0.4,1.7-0.9c0.4-0.5,0.6-1.2,0.6-2.1V273.3z"/>
			<path class="st33" d="M971.7,277.4l-1.5,0.2V270l-3.1,1.3v-1l4.4-1.9l0.2,0V277.4z"/>
			<path class="st33" d="M982,276l-1.5,0.2v-7.7l-3.1,1.3v-1l4.4-1.9l0.2,0V276z"/>
			<path class="st33" d="M994.9,270.3c0,1.4-0.3,2.5-0.9,3.2c-0.6,0.8-1.6,1.2-2.9,1.4c-1.3,0.2-2.2,0-2.8-0.6
				c-0.6-0.6-0.9-1.5-1-2.8V270c0-1.4,0.3-2.4,0.9-3.2c0.6-0.7,1.6-1.2,2.9-1.4c1.3-0.2,2.2,0,2.9,0.5c0.6,0.6,0.9,1.5,0.9,2.8
				V270.3z M993.4,268.9c0-1-0.2-1.7-0.5-2.1c-0.4-0.4-0.9-0.6-1.7-0.4c-0.8,0.1-1.4,0.4-1.7,0.9c-0.4,0.5-0.5,1.2-0.6,2.2v1.9
				c0,1,0.2,1.7,0.6,2.1c0.4,0.4,0.9,0.6,1.7,0.5c0.8-0.1,1.3-0.4,1.7-0.9c0.4-0.5,0.6-1.2,0.6-2.2V268.9z"/>
			<path class="st33" d="M1005.2,268.9c0,1.4-0.3,2.5-0.9,3.3c-0.6,0.8-1.6,1.2-2.9,1.4c-1.3,0.2-2.2,0-2.8-0.6
				c-0.6-0.6-0.9-1.5-1-2.8v-1.6c0-1.4,0.3-2.4,0.9-3.2c0.6-0.8,1.6-1.2,2.9-1.4c1.3-0.2,2.2,0,2.9,0.6c0.6,0.6,0.9,1.5,0.9,2.9
				V268.9z M1003.7,267.5c0-1-0.2-1.7-0.5-2.1c-0.4-0.4-0.9-0.6-1.7-0.4c-0.8,0.1-1.4,0.4-1.7,0.9c-0.4,0.5-0.5,1.2-0.6,2.2v1.9
				c0,1,0.2,1.7,0.6,2.2c0.4,0.4,0.9,0.6,1.7,0.5c0.8-0.1,1.3-0.4,1.7-0.9c0.4-0.5,0.6-1.3,0.6-2.2V267.5z"/>
			<path class="st33" d="M1013,271.9l-1.5,0.2V264l-3.1,1.3v-1.1l4.4-1.9l0.2,0V271.9z"/>
			<path class="st33" d="M1023.4,270.6l-1.5,0.2v-8.2l-3.1,1.4v-1.1l4.4-2l0.2,0V270.6z"/>
			<path class="st33" d="M1033.7,269.2l-1.5,0.2v-8.3l-3.1,1.4v-1.1l4.4-2l0.2,0V269.2z"/>
			<path class="st33" d="M963.9,289.6c0,1.3-0.3,2.3-0.9,3c-0.6,0.7-1.6,1.1-2.9,1.3c-1.3,0.1-2.2-0.1-2.8-0.6
				c-0.6-0.6-0.9-1.4-1-2.7v-1.5c0-1.3,0.3-2.3,0.9-3c0.6-0.7,1.6-1.1,2.9-1.3c1.3-0.2,2.2,0,2.9,0.6c0.6,0.5,0.9,1.4,0.9,2.7V289.6
				z M962.4,288.3c0-1-0.2-1.6-0.5-2c-0.4-0.4-0.9-0.5-1.7-0.4c-0.8,0.1-1.4,0.4-1.7,0.9c-0.4,0.5-0.5,1.2-0.6,2.1v1.8
				c0,1,0.2,1.6,0.6,2c0.4,0.4,0.9,0.6,1.7,0.5c0.8-0.1,1.3-0.4,1.7-0.8c0.4-0.5,0.6-1.2,0.6-2.1V288.3z"/>
			<path class="st33" d="M971.7,292.6l-1.5,0.2v-7.6l-3.1,1.2v-1l4.4-1.8l0.2,0V292.6z"/>
			<path class="st33" d="M982,291.5l-1.5,0.2v-7.7l-3.1,1.2v-1l4.4-1.8l0.2,0V291.5z"/>
			<path class="st33" d="M994.9,286.1c0,1.4-0.3,2.5-0.9,3.2c-0.6,0.7-1.6,1.2-2.9,1.3c-1.3,0.1-2.2-0.1-2.8-0.7
				c-0.6-0.6-0.9-1.5-1-2.8v-1.6c0-1.4,0.3-2.4,0.9-3.1c0.6-0.7,1.6-1.2,2.9-1.3c1.3-0.2,2.2,0,2.9,0.6c0.6,0.6,0.9,1.5,0.9,2.9
				V286.1z M993.4,284.6c0-1-0.2-1.7-0.5-2.1c-0.4-0.4-0.9-0.6-1.7-0.5c-0.8,0.1-1.4,0.4-1.7,0.9c-0.4,0.5-0.5,1.2-0.6,2.2v1.9
				c0,1,0.2,1.7,0.6,2.1c0.4,0.4,0.9,0.6,1.7,0.5c0.8-0.1,1.3-0.4,1.7-0.9c0.4-0.5,0.6-1.2,0.6-2.2V284.6z"/>
			<path class="st33" d="M1005.2,284.9c0,1.4-0.3,2.5-0.9,3.2c-0.6,0.8-1.6,1.2-2.9,1.3c-1.3,0.1-2.2-0.1-2.8-0.7
				c-0.6-0.6-0.9-1.5-1-2.9v-1.6c0-1.4,0.3-2.4,0.9-3.2c0.6-0.7,1.6-1.2,2.9-1.4c1.3-0.2,2.2,0.1,2.9,0.6c0.6,0.6,0.9,1.5,0.9,2.9
				V284.9z M1003.7,283.4c0-1-0.2-1.7-0.5-2.2c-0.4-0.4-0.9-0.6-1.7-0.5c-0.8,0.1-1.4,0.4-1.7,0.9c-0.4,0.5-0.5,1.2-0.6,2.2v1.9
				c0,1,0.2,1.7,0.6,2.2c0.4,0.4,0.9,0.6,1.7,0.5c0.8-0.1,1.3-0.4,1.7-0.9c0.4-0.5,0.6-1.2,0.6-2.2V283.4z"/>
			<path class="st33" d="M1013,288.1l-1.5,0.2v-8.1l-3.1,1.3v-1.1l4.4-1.8l0.2,0V288.1z"/>
			<path class="st33" d="M1023.4,287l-1.5,0.2v-8.2l-3.1,1.3v-1.1l4.4-1.9l0.2,0V287z"/>
			<path class="st33" d="M1036.2,281.4c0,1.5-0.3,2.6-0.9,3.4c-0.6,0.8-1.6,1.2-2.9,1.4c-1.3,0.1-2.2-0.1-2.8-0.7
				c-0.6-0.6-0.9-1.6-1-3v-1.7c0-1.4,0.3-2.5,0.9-3.3c0.6-0.8,1.6-1.2,2.9-1.4c1.3-0.2,2.2,0.1,2.9,0.7c0.6,0.6,0.9,1.6,0.9,3V281.4
				z M1034.7,279.8c0-1.1-0.2-1.8-0.5-2.3c-0.4-0.4-0.9-0.6-1.7-0.5c-0.8,0.1-1.4,0.4-1.7,0.9c-0.4,0.5-0.5,1.3-0.6,2.3v2
				c0,1.1,0.2,1.8,0.6,2.3c0.4,0.5,0.9,0.7,1.7,0.6c0.8-0.1,1.3-0.4,1.7-0.9c0.4-0.5,0.6-1.3,0.6-2.3V279.8z"/>
			<path class="st33" d="M963.9,304.6c0,1.3-0.3,2.3-0.9,3c-0.6,0.7-1.6,1.1-2.9,1.2c-1.3,0.1-2.2-0.1-2.8-0.7
				c-0.6-0.6-0.9-1.5-1-2.7V304c0-1.3,0.3-2.3,0.9-3c0.6-0.7,1.6-1.1,2.9-1.2c1.3-0.1,2.2,0.1,2.9,0.6c0.6,0.6,0.9,1.5,0.9,2.7
				V304.6z M962.4,303.2c0-1-0.2-1.6-0.5-2c-0.4-0.4-0.9-0.6-1.7-0.5c-0.8,0.1-1.4,0.3-1.7,0.8c-0.4,0.5-0.5,1.1-0.6,2v1.8
				c0,1,0.2,1.6,0.6,2.1c0.4,0.4,0.9,0.6,1.7,0.5c0.8-0.1,1.3-0.3,1.7-0.8c0.4-0.5,0.6-1.2,0.6-2.1V303.2z"/>
			<path class="st33" d="M971.7,307.8l-1.5,0.1v-7.6l-3.1,1.1v-1l4.4-1.7l0.2,0V307.8z"/>
			<path class="st33" d="M982,306.9l-1.5,0.1v-7.7l-3.1,1.2v-1l4.4-1.7l0.2,0V306.9z"/>
			<path class="st33" d="M994.9,301.8c0,1.4-0.3,2.4-0.9,3.2c-0.6,0.7-1.6,1.1-2.9,1.3c-1.3,0.1-2.2-0.1-2.8-0.7
				c-0.6-0.6-0.9-1.5-1-2.8v-1.6c0-1.4,0.3-2.4,0.9-3.1c0.6-0.7,1.6-1.1,2.9-1.3c1.3-0.1,2.2,0.1,2.9,0.7c0.6,0.6,0.9,1.5,0.9,2.9
				V301.8z M993.4,300.3c0-1-0.2-1.7-0.5-2.1c-0.4-0.4-0.9-0.6-1.7-0.5c-0.8,0.1-1.4,0.4-1.7,0.8c-0.4,0.5-0.5,1.2-0.6,2.1v1.9
				c0,1,0.2,1.7,0.6,2.2c0.4,0.4,0.9,0.6,1.7,0.6c0.8-0.1,1.3-0.3,1.7-0.8c0.4-0.5,0.6-1.2,0.6-2.2V300.3z"/>
			<path class="st33" d="M1005.2,300.9c0,1.4-0.3,2.5-0.9,3.2c-0.6,0.7-1.6,1.2-2.9,1.3c-1.3,0.1-2.2-0.1-2.8-0.8
				c-0.6-0.6-0.9-1.6-1-2.9v-1.6c0-1.4,0.3-2.4,0.9-3.2c0.6-0.7,1.6-1.2,2.9-1.3c1.3-0.1,2.2,0.1,2.9,0.7c0.6,0.6,0.9,1.6,0.9,2.9
				V300.9z M1003.7,299.4c0-1-0.2-1.7-0.5-2.2c-0.4-0.4-0.9-0.6-1.7-0.5c-0.8,0.1-1.4,0.4-1.7,0.9c-0.4,0.5-0.5,1.2-0.6,2.2v1.9
				c0,1,0.2,1.7,0.6,2.2c0.4,0.5,0.9,0.6,1.7,0.6c0.8-0.1,1.3-0.3,1.7-0.8c0.4-0.5,0.6-1.2,0.6-2.2V299.4z"/>
			<path class="st33" d="M1015.6,299.9c0,1.4-0.3,2.5-0.9,3.3c-0.6,0.7-1.6,1.2-2.9,1.3c-1.3,0.1-2.2-0.1-2.8-0.8
				c-0.6-0.6-0.9-1.6-1-2.9v-1.6c0-1.4,0.3-2.5,0.9-3.2c0.6-0.7,1.6-1.2,2.9-1.3c1.3-0.1,2.2,0.1,2.9,0.7c0.6,0.6,0.9,1.6,0.9,3
				V299.9z M1014,298.4c0-1-0.2-1.8-0.5-2.2c-0.4-0.4-0.9-0.6-1.7-0.5c-0.8,0.1-1.4,0.4-1.7,0.9c-0.4,0.5-0.5,1.2-0.6,2.2v1.9
				c0,1,0.2,1.8,0.6,2.2c0.4,0.5,0.9,0.7,1.7,0.6c0.8-0.1,1.3-0.3,1.7-0.8c0.4-0.5,0.6-1.2,0.6-2.2V298.4z"/>
			<path class="st33" d="M1023.4,303.4l-1.5,0.1v-8.2l-3.1,1.2v-1.1l4.4-1.8l0.2,0V303.4z"/>
			<path class="st33" d="M1033.7,302.5l-1.5,0.1v-8.3l-3.1,1.2v-1.1l4.4-1.8l0.2,0V302.5z"/>
			<path class="st33" d="M963.9,319.6c0,1.3-0.3,2.3-0.9,3c-0.6,0.7-1.6,1.1-2.9,1.1c-1.3,0.1-2.2-0.2-2.8-0.8
				c-0.6-0.6-0.9-1.5-1-2.7v-1.5c0-1.3,0.3-2.3,0.9-2.9c0.6-0.7,1.6-1.1,2.9-1.2c1.3-0.1,2.2,0.1,2.9,0.7c0.6,0.6,0.9,1.5,0.9,2.8
				V319.6z M962.4,318.2c0-1-0.2-1.6-0.5-2c-0.4-0.4-0.9-0.6-1.7-0.5c-0.8,0.1-1.4,0.3-1.7,0.8c-0.4,0.5-0.5,1.1-0.6,2v1.8
				c0,1,0.2,1.6,0.6,2.1c0.4,0.4,0.9,0.6,1.7,0.6c0.8,0,1.3-0.3,1.7-0.8c0.4-0.5,0.6-1.1,0.6-2.1V318.2z"/>
			<path class="st33" d="M971.7,322.9l-1.5,0.1v-7.6l-3.1,1.1v-1l4.4-1.6l0.2,0V322.9z"/>
			<path class="st33" d="M982,322.3l-1.5,0.1v-7.7l-3.1,1.1v-1l4.4-1.6l0.2,0V322.3z"/>
			<path class="st33" d="M994.9,317.5c0,1.4-0.3,2.4-0.9,3.1c-0.6,0.7-1.6,1.1-2.9,1.2c-1.3,0.1-2.2-0.2-2.8-0.8
				c-0.6-0.6-0.9-1.6-1-2.9v-1.6c0-1.4,0.3-2.4,0.9-3.1c0.6-0.7,1.6-1.1,2.9-1.2c1.3-0.1,2.2,0.2,2.9,0.7c0.6,0.6,0.9,1.6,0.9,2.9
				V317.5z M993.4,316c0-1-0.2-1.7-0.5-2.1c-0.4-0.4-0.9-0.6-1.7-0.6c-0.8,0.1-1.4,0.3-1.7,0.8c-0.4,0.5-0.5,1.2-0.6,2.1v1.9
				c0,1,0.2,1.7,0.6,2.2c0.4,0.5,0.9,0.7,1.7,0.6c0.8,0,1.3-0.3,1.7-0.8c0.4-0.5,0.6-1.2,0.6-2.2V316z"/>
			<path class="st33" d="M1005.2,316.8c0,1.4-0.3,2.5-0.9,3.2c-0.6,0.7-1.6,1.1-2.9,1.2c-1.3,0.1-2.2-0.2-2.8-0.8
				c-0.6-0.6-0.9-1.6-1-2.9v-1.6c0-1.4,0.3-2.4,0.9-3.1c0.6-0.7,1.6-1.1,2.9-1.2c1.3-0.1,2.2,0.2,2.9,0.8c0.6,0.6,0.9,1.6,0.9,2.9
				V316.8z M1003.7,315.3c0-1-0.2-1.7-0.5-2.2c-0.4-0.4-0.9-0.6-1.7-0.6c-0.8,0.1-1.4,0.3-1.7,0.8c-0.4,0.5-0.5,1.2-0.6,2.2v1.9
				c0,1,0.2,1.7,0.6,2.2c0.4,0.5,0.9,0.7,1.7,0.6c0.8,0,1.3-0.3,1.7-0.8c0.4-0.5,0.6-1.2,0.6-2.2V315.3z"/>
			<path class="st33" d="M1013,320.4l-1.5,0.1v-8.1l-3.1,1.1v-1.1l4.4-1.6l0.2,0V320.4z"/>
			<path class="st33" d="M1023.4,319.8l-1.5,0.1v-8.2l-3.1,1.1v-1.1l4.4-1.6l0.2,0V319.8z"/>
			<path class="st33" d="M1036.2,314.8c0,1.5-0.3,2.6-0.9,3.3c-0.6,0.8-1.6,1.2-2.9,1.2c-1.3,0.1-2.2-0.2-2.8-0.9
				c-0.6-0.7-0.9-1.7-1-3v-1.7c0-1.4,0.3-2.5,0.9-3.3c0.6-0.7,1.6-1.2,2.9-1.3c1.3-0.1,2.2,0.2,2.9,0.8c0.6,0.6,0.9,1.7,0.9,3.1
				V314.8z M1034.7,313.1c0-1.1-0.2-1.8-0.5-2.3c-0.4-0.5-0.9-0.7-1.7-0.6c-0.8,0.1-1.4,0.3-1.7,0.8c-0.4,0.5-0.5,1.3-0.6,2.3v2
				c0,1.1,0.2,1.8,0.6,2.3c0.4,0.5,0.9,0.7,1.7,0.7c0.8,0,1.3-0.3,1.7-0.8c0.4-0.5,0.6-1.3,0.6-2.3V313.1z"/>
			<path class="st33" d="M963.9,334.6c0,1.3-0.3,2.3-0.9,3c-0.6,0.7-1.6,1-2.9,1.1c-1.3,0-2.2-0.2-2.8-0.8c-0.6-0.6-0.9-1.5-1-2.7
				v-1.5c0-1.3,0.3-2.3,0.9-2.9c0.6-0.7,1.6-1,2.9-1.1c1.3-0.1,2.2,0.2,2.9,0.8c0.6,0.6,0.9,1.5,0.9,2.8V334.6z M962.4,333.2
				c0-1-0.2-1.6-0.5-2.1c-0.4-0.4-0.9-0.6-1.7-0.6c-0.8,0-1.4,0.3-1.7,0.7c-0.4,0.4-0.5,1.1-0.6,2v1.8c0,1,0.2,1.6,0.6,2.1
				c0.4,0.4,0.9,0.6,1.7,0.6c0.8,0,1.3-0.3,1.7-0.7c0.4-0.4,0.6-1.1,0.6-2.1V333.2z"/>
			<path class="st33" d="M974.2,334.2c0,1.3-0.3,2.4-0.9,3c-0.6,0.7-1.6,1-2.9,1.1c-1.3,0-2.2-0.2-2.8-0.8c-0.6-0.6-0.9-1.5-1-2.8
				v-1.5c0-1.3,0.3-2.3,0.9-3c0.6-0.7,1.6-1,2.9-1.1c1.3-0.1,2.2,0.2,2.9,0.8c0.6,0.6,0.9,1.5,0.9,2.8V334.2z M972.7,332.7
				c0-1-0.2-1.7-0.5-2.1c-0.4-0.4-0.9-0.6-1.7-0.6c-0.8,0-1.4,0.3-1.7,0.7c-0.4,0.5-0.5,1.1-0.6,2v1.8c0,1,0.2,1.7,0.6,2.1
				c0.4,0.4,0.9,0.7,1.7,0.6c0.8,0,1.3-0.3,1.7-0.7c0.4-0.5,0.6-1.1,0.6-2.1V332.7z"/>
			<path class="st33" d="M982,337.7l-1.5,0.1v-7.7l-3.1,1v-1l4.4-1.5l0.2,0V337.7z"/>
			<path class="st33" d="M992.4,337.3l-1.5,0.1v-7.8l-3.1,1v-1.1l4.4-1.5l0.2,0V337.3z"/>
			<path class="st33" d="M1005.2,332.8c0,1.4-0.3,2.5-0.9,3.2c-0.6,0.7-1.6,1.1-2.9,1.1c-1.3,0-2.2-0.2-2.8-0.9
				c-0.6-0.6-0.9-1.6-1-2.9v-1.6c0-1.4,0.3-2.4,0.9-3.1c0.6-0.7,1.6-1.1,2.9-1.2c1.3-0.1,2.2,0.2,2.9,0.8c0.6,0.6,0.9,1.6,0.9,3
				V332.8z M1003.7,331.2c0-1-0.2-1.7-0.5-2.2c-0.4-0.4-0.9-0.6-1.7-0.6c-0.8,0-1.4,0.3-1.7,0.8c-0.4,0.5-0.5,1.2-0.6,2.1v1.9
				c0,1,0.2,1.8,0.6,2.2c0.4,0.5,0.9,0.7,1.7,0.7c0.8,0,1.3-0.3,1.7-0.8c0.4-0.5,0.6-1.2,0.6-2.2V331.2z"/>
			<path class="st33" d="M1015.6,332.4c0,1.4-0.3,2.5-0.9,3.2c-0.6,0.7-1.6,1.1-2.9,1.1c-1.3,0-2.2-0.3-2.8-0.9
				c-0.6-0.6-0.9-1.6-1-3v-1.6c0-1.4,0.3-2.4,0.9-3.2c0.6-0.7,1.6-1.1,2.9-1.2c1.3-0.1,2.2,0.2,2.9,0.8c0.6,0.6,0.9,1.6,0.9,3V332.4
				z M1014,330.8c0-1-0.2-1.8-0.5-2.2c-0.4-0.5-0.9-0.7-1.7-0.6c-0.8,0-1.4,0.3-1.7,0.8c-0.4,0.5-0.5,1.2-0.6,2.2v1.9
				c0,1,0.2,1.8,0.6,2.3c0.4,0.5,0.9,0.7,1.7,0.7c0.8,0,1.3-0.3,1.7-0.8c0.4-0.5,0.6-1.2,0.6-2.2V330.8z"/>
			<path class="st33" d="M1025.9,331.9c0,1.5-0.3,2.5-0.9,3.3c-0.6,0.7-1.6,1.1-2.9,1.2c-1.3,0-2.2-0.3-2.8-0.9
				c-0.6-0.7-0.9-1.7-1-3v-1.6c0-1.4,0.3-2.5,0.9-3.2c0.6-0.7,1.6-1.1,2.9-1.2c1.3-0.1,2.2,0.2,2.9,0.9c0.6,0.6,0.9,1.7,0.9,3.1
				V331.9z M1024.4,330.3c0-1-0.2-1.8-0.5-2.3c-0.4-0.5-0.9-0.7-1.7-0.6c-0.8,0-1.4,0.3-1.7,0.8c-0.4,0.5-0.5,1.2-0.6,2.2v2
				c0,1,0.2,1.8,0.6,2.3c0.4,0.5,0.9,0.7,1.7,0.7c0.8,0,1.3-0.3,1.7-0.8c0.4-0.5,0.6-1.2,0.6-2.3V330.3z"/>
			<path class="st33" d="M1033.7,335.8l-1.5,0.1v-8.3l-3.1,1.1v-1.1l4.4-1.6l0.2,0V335.8z"/>
			<path class="st33" d="M963.9,349.7c0,1.3-0.3,2.3-0.9,3c-0.6,0.7-1.6,1-2.9,1c-1.3,0-2.2-0.3-2.8-0.9c-0.6-0.6-0.9-1.5-1-2.8
				v-1.5c0-1.3,0.3-2.3,0.9-2.9c0.6-0.6,1.6-1,2.9-1c1.3,0,2.2,0.2,2.9,0.8c0.6,0.6,0.9,1.5,0.9,2.8V349.7z M962.4,348.1
				c0-1-0.2-1.6-0.5-2.1c-0.4-0.4-0.9-0.6-1.7-0.6c-0.8,0-1.4,0.3-1.7,0.7c-0.4,0.4-0.5,1.1-0.6,2v1.8c0,1,0.2,1.7,0.6,2.1
				c0.4,0.4,0.9,0.7,1.7,0.7c0.8,0,1.3-0.2,1.7-0.7c0.4-0.4,0.6-1.1,0.6-2V348.1z"/>
			<path class="st33" d="M974.2,349.4c0,1.3-0.3,2.3-0.9,3c-0.6,0.7-1.6,1-2.9,1c-1.3,0-2.2-0.3-2.8-0.9c-0.6-0.6-0.9-1.6-1-2.8
				v-1.5c0-1.3,0.3-2.3,0.9-2.9c0.6-0.7,1.6-1,2.9-1c1.3,0,2.2,0.2,2.9,0.8c0.6,0.6,0.9,1.6,0.9,2.9V349.4z M972.7,347.9
				c0-1-0.2-1.7-0.5-2.1c-0.4-0.4-0.9-0.6-1.7-0.6c-0.8,0-1.4,0.3-1.7,0.7c-0.4,0.4-0.5,1.1-0.6,2v1.8c0,1,0.2,1.7,0.6,2.1
				c0.4,0.5,0.9,0.7,1.7,0.7c0.8,0,1.3-0.2,1.7-0.7c0.4-0.4,0.6-1.1,0.6-2.1V347.9z"/>
			<path class="st33" d="M982,353.2l-1.5,0v-7.7l-3.1,0.9v-1l4.4-1.4l0.2,0V353.2z"/>
			<path class="st33" d="M992.4,353l-1.5,0v-7.8l-3.1,0.9v-1.1l4.4-1.4l0.2,0V353z"/>
			<path class="st33" d="M1005.2,348.8c0,1.4-0.3,2.5-0.9,3.2c-0.6,0.7-1.6,1-2.9,1.1c-1.3,0-2.2-0.3-2.8-1c-0.6-0.7-0.9-1.6-1-3
				v-1.6c0-1.4,0.3-2.4,0.9-3.1c0.6-0.7,1.6-1,2.9-1.1c1.3,0,2.2,0.3,2.9,0.9c0.6,0.6,0.9,1.6,0.9,3V348.8z M1003.7,347.2
				c0-1-0.2-1.8-0.5-2.2c-0.4-0.5-0.9-0.7-1.7-0.6c-0.8,0-1.4,0.3-1.7,0.7c-0.4,0.5-0.5,1.2-0.6,2.1v1.9c0,1,0.2,1.8,0.6,2.2
				c0.4,0.5,0.9,0.7,1.7,0.7c0.8,0,1.3-0.2,1.7-0.7c0.4-0.5,0.6-1.2,0.6-2.2V347.2z"/>
			<path class="st33" d="M1013,352.7l-1.5,0v-8.1l-3.1,1v-1.1l4.4-1.4l0.2,0V352.7z"/>
			<path class="st33" d="M1025.9,348.4c0,1.5-0.3,2.5-0.9,3.2c-0.6,0.7-1.6,1.1-2.9,1.1c-1.3,0-2.2-0.3-2.8-1c-0.6-0.7-0.9-1.7-1-3
				v-1.6c0-1.4,0.3-2.5,0.9-3.2c0.6-0.7,1.6-1.1,2.9-1.1c1.3,0,2.2,0.3,2.9,0.9c0.6,0.7,0.9,1.7,0.9,3.1V348.4z M1024.4,346.7
				c0-1-0.2-1.8-0.5-2.3c-0.4-0.5-0.9-0.7-1.7-0.7c-0.8,0-1.4,0.3-1.7,0.8c-0.4,0.5-0.5,1.2-0.6,2.2v2c0,1,0.2,1.8,0.6,2.3
				c0.4,0.5,0.9,0.7,1.7,0.7c0.8,0,1.3-0.3,1.7-0.7c0.4-0.5,0.6-1.2,0.6-2.2V346.7z"/>
			<path class="st33" d="M1036.2,348.2c0,1.5-0.3,2.6-0.9,3.3c-0.6,0.7-1.6,1.1-2.9,1.1c-1.3,0-2.2-0.3-2.8-1
				c-0.6-0.7-0.9-1.7-1-3.1v-1.7c0-1.4,0.3-2.5,0.9-3.2c0.6-0.7,1.6-1.1,2.9-1.1c1.3,0,2.2,0.3,2.9,0.9c0.6,0.7,0.9,1.7,0.9,3.1
				V348.2z M1034.7,346.5c0-1.1-0.2-1.8-0.5-2.3c-0.4-0.5-0.9-0.7-1.7-0.7c-0.8,0-1.4,0.3-1.7,0.8c-0.4,0.5-0.5,1.2-0.6,2.2v2
				c0,1.1,0.2,1.8,0.6,2.3c0.4,0.5,0.9,0.7,1.7,0.7c0.8,0,1.3-0.3,1.7-0.7c0.4-0.5,0.6-1.2,0.6-2.3V346.5z"/>
			<path class="st33" d="M963.9,364.7c0,1.3-0.3,2.3-0.9,2.9c-0.6,0.6-1.6,0.9-2.9,0.9c-1.3,0-2.2-0.3-2.8-1c-0.6-0.6-0.9-1.6-1-2.8
				v-1.5c0-1.3,0.3-2.3,0.9-2.9c0.6-0.6,1.6-1,2.9-1c1.3,0,2.2,0.3,2.9,0.9c0.6,0.6,0.9,1.6,0.9,2.8V364.7z M962.4,363.1
				c0-1-0.2-1.6-0.5-2.1c-0.4-0.4-0.9-0.7-1.7-0.6c-0.8,0-1.4,0.2-1.7,0.7c-0.4,0.4-0.5,1.1-0.6,2v1.8c0,1,0.2,1.7,0.6,2.1
				c0.4,0.5,0.9,0.7,1.7,0.7c0.8,0,1.3-0.2,1.7-0.6c0.4-0.4,0.6-1.1,0.6-2V363.1z"/>
			<path class="st33" d="M974.2,364.7c0,1.3-0.3,2.3-0.9,3c-0.6,0.6-1.6,1-2.9,1c-1.3,0-2.2-0.3-2.8-1c-0.6-0.6-0.9-1.6-1-2.8v-1.5
				c0-1.3,0.3-2.3,0.9-2.9c0.6-0.6,1.6-1,2.9-1c1.3,0,2.2,0.3,2.9,0.9c0.6,0.6,0.9,1.6,0.9,2.9V364.7z M972.7,363.1
				c0-1-0.2-1.7-0.5-2.1c-0.4-0.4-0.9-0.7-1.7-0.7c-0.8,0-1.4,0.2-1.7,0.7c-0.4,0.4-0.5,1.1-0.6,2v1.8c0,1,0.2,1.7,0.6,2.1
				c0.4,0.5,0.9,0.7,1.7,0.7c0.8,0,1.3-0.2,1.7-0.6c0.4-0.4,0.6-1.1,0.6-2.1V363.1z"/>
			<path class="st33" d="M984.6,364.7c0,1.4-0.3,2.4-0.9,3c-0.6,0.7-1.6,1-2.9,1c-1.3,0-2.2-0.3-2.8-1c-0.6-0.6-0.9-1.6-1-2.9v-1.5
				c0-1.3,0.3-2.3,0.9-3c0.6-0.7,1.6-1,2.9-1c1.3,0,2.2,0.3,2.9,0.9c0.6,0.6,0.9,1.6,0.9,2.9V364.7z M983,363.1c0-1-0.2-1.7-0.5-2.2
				c-0.4-0.4-0.9-0.7-1.7-0.7c-0.8,0-1.4,0.2-1.7,0.7c-0.4,0.4-0.5,1.1-0.6,2.1v1.8c0,1,0.2,1.7,0.6,2.2c0.4,0.5,0.9,0.7,1.7,0.7
				c0.8,0,1.3-0.2,1.7-0.7c0.4-0.4,0.6-1.1,0.6-2.1V363.1z"/>
			<path class="st33" d="M994.9,364.7c0,1.4-0.3,2.4-0.9,3.1c-0.6,0.7-1.6,1-2.9,1c-1.3,0-2.2-0.3-2.8-1c-0.6-0.7-0.9-1.6-1-2.9
				v-1.6c0-1.4,0.3-2.4,0.9-3c0.6-0.7,1.6-1,2.9-1c1.3,0,2.2,0.3,2.9,0.9c0.6,0.6,0.9,1.6,0.9,3V364.7z M993.4,363.1
				c0-1-0.2-1.7-0.5-2.2c-0.4-0.5-0.9-0.7-1.7-0.7c-0.8,0-1.4,0.2-1.7,0.7c-0.4,0.5-0.5,1.1-0.6,2.1v1.9c0,1,0.2,1.7,0.6,2.2
				c0.4,0.5,0.9,0.7,1.7,0.7c0.8,0,1.3-0.2,1.7-0.7c0.4-0.4,0.6-1.2,0.6-2.1V363.1z"/>
			<path class="st33" d="M1002.7,368.8l-1.5,0v-8l-3.1,0.9v-1.1l4.4-1.3l0.2,0V368.8z"/>
			<path class="st33" d="M1015.6,364.8c0,1.4-0.3,2.5-0.9,3.2c-0.6,0.7-1.6,1-2.9,1c-1.3,0-2.2-0.4-2.8-1c-0.6-0.7-0.9-1.7-1-3v-1.6
				c0-1.4,0.3-2.4,0.9-3.1c0.6-0.7,1.6-1,2.9-1c1.3,0,2.2,0.3,2.9,1c0.6,0.7,0.9,1.7,0.9,3.1V364.8z M1014,363.1
				c0-1-0.2-1.8-0.5-2.3c-0.4-0.5-0.9-0.7-1.7-0.7c-0.8,0-1.4,0.2-1.7,0.7c-0.4,0.5-0.5,1.2-0.6,2.2v1.9c0,1,0.2,1.8,0.6,2.3
				c0.4,0.5,0.9,0.7,1.7,0.7c0.8,0,1.3-0.2,1.7-0.7c0.4-0.5,0.6-1.2,0.6-2.2V363.1z"/>
			<path class="st33" d="M1023.4,369l-1.5,0v-8.2l-3.1,0.9v-1.1l4.4-1.3l0.2,0V369z"/>
			<path class="st33" d="M1036.2,364.9c0,1.5-0.3,2.6-0.9,3.3c-0.6,0.7-1.6,1.1-2.9,1c-1.3,0-2.2-0.4-2.8-1.1
				c-0.6-0.7-0.9-1.7-1-3.1v-1.7c0-1.4,0.3-2.5,0.9-3.2c0.6-0.7,1.6-1.1,2.9-1.1c1.3,0,2.2,0.3,2.9,1c0.6,0.7,0.9,1.7,0.9,3.2V364.9
				z M1034.7,363.1c0-1.1-0.2-1.8-0.5-2.3c-0.4-0.5-0.9-0.7-1.7-0.7c-0.8,0-1.4,0.2-1.7,0.7c-0.4,0.5-0.5,1.2-0.6,2.2v2
				c0,1.1,0.2,1.8,0.6,2.4c0.4,0.5,0.9,0.8,1.7,0.8c0.8,0,1.3-0.2,1.7-0.7c0.4-0.5,0.6-1.2,0.6-2.3V363.1z"/>
		</g>
	</g>
</g>
</svg>
