<svg xmlns="http://www.w3.org/2000/svg" viewBox="0 0 31.25 30.79"><defs><style>.cls-1{fill:#fff;}.cls-2{fill:none;stroke:#fff;stroke-width:0.5px;}</style></defs><title>sign-up-icon</title><g id="Layer_2" data-name="Layer 2"><g id="Layer_2-2" data-name="Layer 2"><polygon class="cls-1" points="31.25 18.93 25.82 18.93 25.82 13.49 21.52 13.49 21.52 18.93 15.86 18.93 15.86 23.23 21.52 23.23 21.52 28.89 25.82 28.89 25.82 23.23 31.25 23.23 31.25 18.93"/><line class="cls-2" x1="20.39" y1="24.12" x2="20.39" y2="28.6"/><line class="cls-2" x1="20.39" y1="16.83" x2="20.39" y2="18.06"/><line class="cls-2" x1="20.64" y1="24.37" x2="14.7" y2="24.36"/><line class="cls-2" x1="20.64" y1="17.82" x2="14.54" y2="17.82"/><line class="cls-2" x1="14.7" y1="17.82" x2="14.7" y2="24.61"/><path class="cls-2" d="M20.42,17a12,12,0,0,0-5.11-4.85,6.45,6.45,0,0,0,2.86-5.35,6.62,6.62,0,0,0-13.23,0,6.45,6.45,0,0,0,2.78,5.29C3.41,14,.28,19.21.25,25.28v0h0v0h0c.06,2.86,5.05,5.17,11.2,5.17a17.44,17.44,0,0,0,9.05-2.15"/></g></g></svg>