<svg xmlns="http://www.w3.org/2000/svg" xmlns:xlink="http://www.w3.org/1999/xlink" viewBox="0 0 299.96 299.97"><defs><style>.cls-1{fill:url(#radial-gradient);}.cls-2{fill:#fff;}.cls-3{fill:url(#radial-gradient-2);}.cls-4{fill:url(#radial-gradient-3);}.cls-5{fill:url(#radial-gradient-4);}.cls-6{fill:url(#radial-gradient-5);}.cls-7{fill:url(#radial-gradient-6);}.cls-8{fill:url(#radial-gradient-7);}</style><radialGradient id="radial-gradient" cx="225.2" cy="198.12" r="23.87" gradientTransform="translate(249.83 -84.87) rotate(57.42) scale(1 0.87)" gradientUnits="userSpaceOnUse"><stop offset="0.79" stop-opacity="0"/><stop offset="0.95" stop-color="#fff" stop-opacity="0.75"/></radialGradient><radialGradient id="radial-gradient-2" cx="168.2" cy="157.12" r="23.87" gradientTransform="translate(193.33 -58.54) rotate(57.42) scale(1 0.87)" xlink:href="#radial-gradient"/><radialGradient id="radial-gradient-3" cx="91.2" cy="161.12" r="23.87" gradientTransform="translate(160.74 8.46) rotate(57.42) scale(1 0.87)" xlink:href="#radial-gradient"/><radialGradient id="radial-gradient-4" cx="118.2" cy="233.12" r="23.87" gradientTransform="translate(226.22 23.83) rotate(57.42) scale(1 0.87)" xlink:href="#radial-gradient"/><radialGradient id="radial-gradient-5" cx="29.2" cy="153.12" r="23.87" gradientTransform="translate(126.23 56.47) rotate(57.42) scale(1 0.87)" xlink:href="#radial-gradient"/><radialGradient id="radial-gradient-6" cx="103.2" cy="95.12" r="23.87" gradientTransform="translate(117.68 -36.6) rotate(57.42) scale(1 0.87)" xlink:href="#radial-gradient"/><radialGradient id="radial-gradient-7" cx="56.2" cy="50.12" r="23.87" gradientTransform="translate(62.85 -20.82) rotate(57.42) scale(1 0.87)" xlink:href="#radial-gradient"/></defs><title>Asset 1</title><g id="Layer_2" data-name="Layer 2"><g id="Layer_1-2" data-name="Layer 1"><circle class="cls-1" cx="236" cy="212.97" r="13.5"/><path class="cls-2" d="M236,201a12,12,0,1,1-12,12,12,12,0,0,1,12-12m0-3a15,15,0,1,0,15,15,15,15,0,0,0-15-15Z"/><path class="cls-2" d="M139.87,5.33a40,40,0,0,0-1.5,23,39.78,39.78,0,0,0,11.36,19.66c-3.58,11.54-2.48,23.5,3.17,33.28a39.79,39.79,0,0,0,16.88,15.72,38.69,38.69,0,0,0,4.12,10.28A40.68,40.68,0,0,0,198,125.79a30.09,30.09,0,0,0,3.89,12.65c5.77,10,17.21,16,30.6,16a47.45,47.45,0,0,0,5.68-.35,54.48,54.48,0,0,0,34.07,11.71,58,58,0,0,0,22.33-4.49A145,145,0,0,1,47.47,252.5,145,145,0,0,1,139.87,5.33M148,0A150,150,0,1,0,300,152.84a51.53,51.53,0,0,1-20,7.35,52.44,52.44,0,0,1-7.75.58,49.44,49.44,0,0,1-32.58-12,43,43,0,0,1-7.17.62c-11.22,0-21.19-4.66-26.27-13.47a25.4,25.4,0,0,1-3.29-14.06c-10.41-2.17-19.42-8-24.69-17.16a34.13,34.13,0,0,1-4.07-11.26,35.12,35.12,0,0,1-16.93-14.74c-5.68-9.84-5.9-21.54-1.67-32.3a35.23,35.23,0,0,1-12.32-19.29A36,36,0,0,1,148,0Z"/><circle class="cls-3" cx="179" cy="171.97" r="13.5"/><path class="cls-2" d="M179,160a12,12,0,1,1-12,12,12,12,0,0,1,12-12m0-3a15,15,0,1,0,15,15,15,15,0,0,0-15-15Z"/><circle class="cls-4" cx="102" cy="175.97" r="13.5"/><path class="cls-2" d="M102,164a12,12,0,1,1-12,12,12,12,0,0,1,12-12m0-3a15,15,0,1,0,15,15,15,15,0,0,0-15-15Z"/><circle class="cls-5" cx="129" cy="247.97" r="13.5"/><path class="cls-2" d="M129,236a12,12,0,1,1-12,12,12,12,0,0,1,12-12m0-3a15,15,0,1,0,15,15,15,15,0,0,0-15-15Z"/><circle class="cls-6" cx="40" cy="167.97" r="13.5"/><path class="cls-2" d="M40,156a12,12,0,1,1-12,12,12,12,0,0,1,12-12m0-3a15,15,0,1,0,15,15,15,15,0,0,0-15-15Z"/><circle class="cls-7" cx="114" cy="109.97" r="13.5"/><path class="cls-2" d="M114,98a12,12,0,1,1-12,12,12,12,0,0,1,12-12m0-3a15,15,0,1,0,15,15,15,15,0,0,0-15-15Z"/><circle class="cls-8" cx="67" cy="64.97" r="13.5"/><path class="cls-2" d="M67,53A12,12,0,1,1,55,65,12,12,0,0,1,67,53m0-3A15,15,0,1,0,82,65,15,15,0,0,0,67,50Z"/></g></g></svg>