<svg xmlns="http://www.w3.org/2000/svg" width="92.564" height="56.959" viewBox="0 0 92.564 56.959">
  <g id="Asset_1" data-name="Asset 1" transform="translate(0 0.002)">
    <g id="Layer_1" data-name="Layer 1" transform="translate(0 -0.002)">
      <path id="Path_1" data-name="Path 1" d="M0,47V9.941c.068-.452.117-.908.208-1.355A10.647,10.647,0,0,1,10.691,0H81.847a10.412,10.412,0,0,1,3.345.526,10.643,10.643,0,0,1,7.36,10.212q.023,17.734,0,35.476a9.9,9.9,0,0,1-.914,4.354,10.363,10.363,0,0,1-9.906,6.369q-35.445.044-70.893,0a12.445,12.445,0,0,1-2.128-.184A10.628,10.628,0,0,1,.293,48.729C.163,48.156.1,47.579,0,47Zm21.376-.766H71.169V39.167H21.385ZM39.135,17.779V10.7H32.051v7.08ZM10.7,10.691v7.085h7.079V10.691Zm53.393,0v7.09h7.077v-7.1ZM14.257,24.922v7.085h7.084V24.922ZM28.472,10.694H21.386v7.08h7.085Zm24.933,0v7.085H60.49V10.691Zm28.462,7.087V10.7H74.783v7.084Zm-32.033-7.09h-7.1v7.1H49.5c.278,0,.34-.081.34-.345-.01-2.154,0-4.307,0-6.459ZM32.022,24.93H24.93v7.08h7.092ZM35.6,32.009h7.087V24.931H35.606Zm17.771,0V24.931H46.3v7.084Zm10.684,0V24.933H56.982v7.084Zm3.6-7.09V32h7.079V24.927Z" transform="translate(0 0.002)" fill="#005a2b"/>
    </g>
  </g>
</svg>
