<svg xmlns="http://www.w3.org/2000/svg" width="92.205" height="74.308" viewBox="0 0 92.205 74.308">
  <g id="mouse-icon" transform="translate(-0.004 -0.014)">
    <g id="Layer_1" data-name="Layer 1" transform="translate(0.004 0.014)">
      <path id="Path_2" data-name="Path 2" d="M243.66.67a2.266,2.266,0,0,0-3.19,0c-5.635,5.638-8.391,5.184-11.867,4.612-4.912-.807-9.286-.875-16.363,5.748.235.218.47.436.7.663l1.785,1.79c.244.241.473.49.7.739,5.966-5.553,8.981-5.057,12.44-4.487,3.995.657,8.524,1.416,15.8-5.873a2.266,2.266,0,0,0,0-3.193Z" transform="translate(-152.114 -0.014)" fill="#005a2b"/>
      <path id="Path_3" data-name="Path 3" d="M223.456,50.163h0l-.006,0Z" transform="translate(-160.148 -35.954)" fill="#005a2b"/>
      <path id="Path_4" data-name="Path 4" d="M177.321,60.17A7.037,7.037,0,0,1,176,68.253l-2.9,2.89L186.559,84.6c8.952-10.224,9.349-25.1.81-34.432q-.584.538-1.2,1.159Z" transform="translate(-124.062 -35.961)" fill="#005a2b"/>
      <path id="Path_5" data-name="Path 5" d="M135.53,96.3l6.638-6.638a3.643,3.643,0,1,0-5.15-5.15l-6.638,6.638a3.643,3.643,0,1,0,5.15,5.15Z" transform="translate(-92.629 -59.756)" fill="#005a2b"/>
      <path id="Path_6" data-name="Path 6" d="M90.5,23.907,103.957,37.37l2.9-2.9a7.037,7.037,0,0,1,8.077-1.334l8.859-8.839q.612-.612,1.2-1.159A23.863,23.863,0,0,0,108.7,16.91,27.951,27.951,0,0,0,90.5,23.907Z" transform="translate(-64.863 -12.123)" fill="#005a2b"/>
      <path id="Path_7" data-name="Path 7" d="M45.3,76.708a7.026,7.026,0,0,1-9.935-9.938l.55-.55L22.4,52.71,8.3,66.81C-2.178,77.292-2.821,93.723,6.887,103.4l1.779,1.8a23.812,23.812,0,0,0,17,6.887,28.043,28.043,0,0,0,19.61-8.315l14.1-14.1-13.51-13.51Z" transform="translate(-0.004 -37.781)" fill="#005a2b"/>
    </g>
  </g>
</svg>
