<svg xmlns="http://www.w3.org/2000/svg" viewBox="0 0 187.33 73.05"><defs><style>.cls-1{isolation:isolate;}.cls-2{fill:#fff;}</style></defs><title>Asset 1</title><g id="Layer_2" data-name="Layer 2"><g id="Layer_1-2" data-name="Layer 1"><g id="Layer_2-2" data-name="Layer 2-2"><g class="cls-1"><path class="cls-2" d="M58,48.39q-.83,11.47-8.47,18.07T29.35,73.05q-13.68,0-21.51-9.21T0,38.57V34.23A42.61,42.61,0,0,1,3.61,16.16a27.1,27.1,0,0,1,10.33-12A29,29,0,0,1,29.54,0q12.3,0,19.83,6.59T58.06,25.1H43.41q-.54-6.88-3.83-10t-10-3.1q-7.32,0-11,5.25T14.84,33.54v5.38q0,11.52,3.49,16.84t11,5.32q6.78,0,10.13-3.1t3.83-9.59Z"/><path class="cls-2" d="M105.12,32.28h17.62V45H105.12V64.94H91.69V45H74V32.28H91.69V13.18h13.43Z"/><path class="cls-2" d="M169.71,32.28h17.62V45H169.71V64.94H156.28V45H138.6V32.28h17.68V13.18h13.43Z"/></g></g></g></g></svg>