<svg xmlns="http://www.w3.org/2000/svg" xmlns:xlink="http://www.w3.org/1999/xlink" viewBox="0 0 128.88 73.06"><defs><style>.cls-1{fill:url(#linear-gradient);}.cls-2{fill:url(#linear-gradient-2);}.cls-3{isolation:isolate;}.cls-4{fill:#fff;}</style><linearGradient id="linear-gradient" x1="-9.19" y1="50.54" x2="202.28" y2="50.54" gradientTransform="matrix(1, 0, 0, -1, 0, 87.07)" gradientUnits="userSpaceOnUse"><stop offset="0" stop-color="#fff"/><stop offset="1"/></linearGradient><linearGradient id="linear-gradient-2" x1="-9.19" y1="50.55" x2="202.28" y2="50.55" xlink:href="#linear-gradient"/></defs><title>Asset 1</title><g id="Layer_2" data-name="Layer 2"><g id="Layer_1-2" data-name="Layer 1"><g id="Layer_2-2" data-name="Layer 2-2"><path class="cls-1" d="M58,48.41q-.84,11.48-8.47,18.06T29.35,73.06q-13.67,0-21.5-9.2T0,38.59V34.25A42.51,42.51,0,0,1,3.62,16.18,26.91,26.91,0,0,1,14,4.18,28.94,28.94,0,0,1,29.55,0Q41.85,0,49.37,6.6t8.7,18.5H43.42q-.54-6.9-3.84-10t-10-3.1q-7.32,0-11,5.25T14.81,33.54v5.37q0,11.52,3.49,16.85t11,5.32q6.79,0,10.14-3.1t3.83-9.59Z"/><path class="cls-2" d="M103.81,52.07H94.38l-3.51,20H81.93l3.52-20H74.36v-8.4H86.91L89.35,29.8H78V21.31H90.87L94.43,1h8.89L99.81,21.31h9.47L112.81,1h8.94l-3.57,20.32h10.7V29.8H116.65l-2.44,13.87h10.94v8.4H112.74l-3.51,20h-8.94Zm-8-8.4h9.42l2.44-13.87H98.2Z"/><g class="cls-3"><path class="cls-4" d="M58,48.4q-.84,11.48-8.47,18.07T29.35,73.06q-13.67,0-21.5-9.2T0,38.59V34.24A42.59,42.59,0,0,1,3.62,16.18,27,27,0,0,1,14,4.19,28.92,28.92,0,0,1,29.55,0q12.3,0,19.82,6.59t8.7,18.5H43.42q-.54-6.88-3.84-10t-10-3.1q-7.32,0-11,5.25T14.85,33.56v5.37q0,11.52,3.49,16.85t11,5.32q6.8,0,10.14-3.1t3.83-9.6Z"/><path class="cls-4" d="M103.81,52.07H94.38l-3.51,20H81.93l3.52-20H74.36v-8.4H86.91L89.35,29.8H78V21.3H90.87L94.43,1h8.89L99.75,21.3h9.48L112.79,1h8.94L118.16,21.3h10.7v8.5H116.65l-2.44,13.87h10.94v8.4H112.74l-3.51,20h-8.94Zm-8-8.4h9.42l2.44-13.87H98.24Z"/></g></g></g></g></svg>