<svg xmlns="http://www.w3.org/2000/svg" xmlns:xlink="http://www.w3.org/1999/xlink" viewBox="0 0 145 112.65"><defs><style>.cls-1{fill:url(#linear-gradient);}.cls-2{font-size:100px;fill:#fff;font-family:Roboto-Bold, Roboto;font-weight:700;letter-spacing:0.1em;}</style><linearGradient id="linear-gradient" x1="-5" y1="56.32" x2="206.47" y2="56.32" gradientUnits="userSpaceOnUse"><stop offset="0" stop-color="#fff"/><stop offset="1"/></linearGradient></defs><title>Asset 3</title><g id="Layer_2" data-name="Layer 2"><g id="Layer_2-2" data-name="Layer 2"><path class="cls-1" d="M62.16,61.87q-.84,11.48-8.47,18.06T33.54,86.52q-13.66,0-21.5-9.2T4.2,52.05V47.71A42.61,42.61,0,0,1,7.81,29.64a27,27,0,0,1,10.33-12,29,29,0,0,1,15.6-4.17q12.3,0,19.82,6.59t8.7,18.5H47.61q-.54-6.89-3.84-10t-10-3.1q-7.32,0-11,5.25T19,47v5.37q0,11.53,3.49,16.85t11,5.32q6.8,0,10.14-3.1t3.83-9.59Z"/><path class="cls-1" d="M108,65.53H98.57l-3.51,20H86.12l3.52-20H78.55v-8.4H91.1l2.44-13.87H82.22V34.77H95.06l3.56-20.32h8.89L104,34.77h9.47L117,14.45h8.94l-3.57,20.32h10.7v8.49H120.84L118.4,57.13h10.94v8.4H116.93l-3.51,20h-8.94Zm-8-8.4h9.42l2.44-13.87h-9.47Z"/><text class="cls-2" transform="translate(0 85.55)">C#</text></g></g></svg>