<svg xmlns="http://www.w3.org/2000/svg" xmlns:xlink="http://www.w3.org/1999/xlink" viewBox="0 0 50.01 28.35"><defs><style>.cls-1{fill:url(#linear-gradient);}.cls-2{fill:url(#linear-gradient-2);}.cls-3{fill:#0080ff;}</style><linearGradient id="linear-gradient" x1="-3.55" y1="719.1" x2="78.48" y2="719.1" gradientTransform="translate(0 -704.93)" gradientUnits="userSpaceOnUse"><stop offset="0" stop-color="#fff"/><stop offset="1"/></linearGradient><linearGradient id="linear-gradient-2" x1="-3.55" y1="719.11" x2="78.48" y2="719.11" xlink:href="#linear-gradient"/></defs><title>Asset 3</title><g id="Layer_2" data-name="Layer 2"><g id="Layer_1-2" data-name="Layer 1"><path class="cls-1" d="M22.51,18.78a9.75,9.75,0,0,1-3.28,7,11.66,11.66,0,0,1-7.83,2.56,10.36,10.36,0,0,1-8.34-3.57Q0,21.21,0,15V13.29a16.44,16.44,0,0,1,1.41-7,10.38,10.38,0,0,1,4-4.65,11.26,11.26,0,0,1,6-1.63,11.28,11.28,0,0,1,7.69,2.56,10.51,10.51,0,0,1,3.37,7.18H16.86a5.79,5.79,0,0,0-1.49-3.88,5.51,5.51,0,0,0-3.88-1.2,4.87,4.87,0,0,0-4.27,2Q5.8,8.73,5.76,13V15.1q0,4.47,1.35,6.54a4.75,4.75,0,0,0,4.27,2.06,5.6,5.6,0,0,0,3.93-1.2,5.46,5.46,0,0,0,1.49-3.72Z"/><path class="cls-2" d="M40.28,20.2H36.63L35.26,28H31.8l1.36-7.76h-4.3V17h4.87l.94-5.39h-4.4V8.27h5L36.65.39h3.44L38.73,8.27h3.68L43.78.39h3.46L45.86,8.27H50v3.29H45.27l-1,5.39h4.24V20.2H43.75L42.39,28H38.92ZM37.18,17h3.66l.94-5.39H38.11Z"/><path class="cls-3" d="M22.51,18.78a9.8,9.8,0,0,1-3.29,7,11.52,11.52,0,0,1-7.83,2.56,10.37,10.37,0,0,1-8.34-3.57Q0,21.21,0,15V13.29a16.44,16.44,0,0,1,1.41-7,10.4,10.4,0,0,1,4-4.65,11.21,11.21,0,0,1,6-1.63,11.23,11.23,0,0,1,7.69,2.56,10.49,10.49,0,0,1,3.37,7.18H16.85a5.79,5.79,0,0,0-1.49-3.88,5.45,5.45,0,0,0-3.88-1.21,4.87,4.87,0,0,0-4.27,2Q5.79,8.73,5.77,13v2.09q0,4.47,1.35,6.53a4.72,4.72,0,0,0,4.27,2.07,5.6,5.6,0,0,0,3.93-1.2,5.46,5.46,0,0,0,1.49-3.73Z"/><path class="cls-3" d="M40.28,20.2H36.62L35.26,28H31.79l1.37-7.76H28.85V17h4.87l1-5.39h-4.4V8.27h5L36.64.39h3.45L38.71,8.27h3.67L43.76.39h3.47L45.85,8.27H50v3.29H45.26L44.32,17h4.24V20.2H43.75L42.38,28H38.92ZM37.18,17h3.65l1-5.39H38.12Z"/></g></g></svg>