<svg id="html5-logo" xmlns="http://www.w3.org/2000/svg" width="92.732" height="130.868" viewBox="0 0 92.732 130.868">
  <path id="Path_39" data-name="Path 39" d="M108.4,0h5.879V5.828H119.7V0h5.879V17.637H119.7V11.758H114.33v5.879H108.4M133.347,5.879h-5.189V0H144.44V5.879h-5.214V17.637h-5.879M147.021,0h6.16l3.783,6.211L160.747,0h6.16V17.637h-5.879V8.895l-4.115,6.339L152.8,8.895v8.742h-5.777M169.821,0H175.7V11.809h8.333v5.828H169.821" transform="translate(-99.761)" fill="#fff"/>
  <path id="Path_40" data-name="Path 40" d="M74.6,100.6l8.435,94.675,37.855,10.48L158.9,195.224l8.435-94.624H74.6Zm74.329,30.953H104.557l1.074,11.885h42.251l-3.2,35.631-23.72,6.569v.077L97.144,179.07l-1.636-18.224h11.655l.818,9.278,12.959,3.476,12.933-3.476,1.355-15.081H120.915v-.026H95l-3.169-35.069H150Z" transform="translate(-74.6 -74.886)" fill="#fff"/>
  <rect id="Rectangle_25" data-name="Rectangle 25" width="0.051" height="11.579" transform="translate(46.315 68.552)" fill="#fff"/>
  <rect id="Rectangle_26" data-name="Rectangle 26" width="0.051" height="11.604" transform="translate(46.315 45.063)" fill="#fff"/>
  <path id="Path_41" data-name="Path 41" d="M255.826,386.2H255.8v12.064l.051-.026V386.2Z" transform="translate(-209.485 -287.487)" fill="#fff"/>
</svg>
