<svg id="java-icon" xmlns="http://www.w3.org/2000/svg" width="110.83" height="150.315" viewBox="0 0 110.83 150.315">
  <g id="Group_1" data-name="Group 1">
    <path id="Path_1" data-name="Path 1" d="M200.61,80.715s-8.374-16.149-8.075-27.932c.239-8.433,19.229-16.777,26.706-28.859C226.687,11.783,218.314,0,218.314,0a27.773,27.773,0,0,1-3.11,17.674c-4.964,9-23.3,14.295-30.414,29.816S200.61,80.715,200.61,80.715Z" transform="translate(-148.305)" fill="#fff"/>
    <path id="Path_2" data-name="Path 2" d="M278.76,105.9s-28.56,10.856-28.56,23.267,7.746,16.448,9,20.485c1.226,4.037-2.183,10.856-2.183,10.856s11.185-7.775,9.3-16.777c-1.854-9-10.557-11.813-5.592-20.784C264.076,116.935,278.76,105.9,278.76,105.9Z" transform="translate(-195.115 -74.23)" fill="#fff"/>
    <path id="Path_3" data-name="Path 3" d="M143.44,290.564c26.377-.927,36.006-9.271,36.006-9.271-17.076,4.665-62.413,4.336-62.712.927S130.7,276,130.7,276s-22.339,0-24.224,5.592C104.623,287.215,117.064,291.491,143.44,290.564Z" transform="translate(-94.246 -193.461)" fill="#fff"/>
    <path id="Path_4" data-name="Path 4" d="M358.2,298.934s25.838-5.5,23.267-19.528c-3.11-17.076-21.113-7.447-21.113-7.447s12.74,0,13.966,7.746C375.575,287.45,358.2,298.934,358.2,298.934Z" transform="translate(-270.817 -188.732)" fill="#fff"/>
    <path id="Path_5" data-name="Path 5" d="M194.009,337.712a125.667,125.667,0,0,1-16.149,2.781c-12.919,1.465-28.56.3-29.816-1.884-1.226-2.183,2.183-3.409,2.183-3.409-15.521,3.738-7.028,10.228,11.155,11.484,15.611,1.077,38.817-4.665,38.817-4.665Z" transform="translate(-119.366 -234.956)" fill="#fff"/>
    <path id="Path_6" data-name="Path 6" d="M164.188,388.9s-7.058.209-7.446,3.918c-.419,3.708,4.336,7.028,21.711,8.074s29.607-4.755,29.607-4.755l-7.865-4.785s-4.964,1.047-12.62,2.063c-7.656,1.047-23.386-.837-23.984-2.273A1.815,1.815,0,0,1,164.188,388.9Z" transform="translate(-129.588 -272.597)" fill="#fff"/>
    <path id="Path_7" data-name="Path 7" d="M168.279,430.911c2.691-2.9-.837-5.174-.837-5.174a2.261,2.261,0,0,1-.389,3.11c-1.645,1.645-16.777,5.772-41,7.028s-50.511-2.273-51.318-5.383S88.192,424.9,88.192,424.9c-1.645.209-21.532.628-22.16,6.011s8.7,9.719,45.965,9.719C149.229,440.63,165.587,433.782,168.279,430.911Z" transform="translate(-66.003 -297.831)" fill="#fff"/>
    <path id="Path_8" data-name="Path 8" d="M204.9,464.421c-16.358,3.29-66,1.226-66,1.226a191.379,191.379,0,0,0,69.112,1.256c17.614-3.08,18.631-11.6,18.631-11.6S221.26,461.1,204.9,464.421Z" transform="translate(-117.1 -319.14)" fill="#fff"/>
  </g>
</svg>
