<svg xmlns="http://www.w3.org/2000/svg" viewBox="0 0 36.87 50"><defs><style>.cls-1{fill:#ec2025;}.cls-2{fill:#0d8ac7;}</style></defs><title>Asset 4</title><g id="Layer_2" data-name="Layer 2"><g id="java-icon"><path id="Path_1" data-name="Path 1" class="cls-1" d="M17.4,26.85s-2.79-5.37-2.69-9.29c.08-2.81,6.4-5.58,8.89-9.6s-.31-8-.31-8a9.25,9.25,0,0,1-1,5.88c-1.65,3-7.75,4.75-10.11,9.92S17.4,26.85,17.4,26.85Z"/><path id="Path_2" data-name="Path 2" class="cls-1" d="M27.82,10.53s-9.5,3.62-9.5,7.74,2.58,5.48,3,6.82-.73,3.61-.73,3.61,3.72-2.59,3.09-5.58-3.51-3.93-1.86-6.91C22.94,14.21,27.82,10.53,27.82,10.53Z"/><path id="Path_3" data-name="Path 3" class="cls-2" d="M16.36,32.3c8.78-.31,12-3.08,12-3.08-5.68,1.55-20.76,1.44-20.86.3s4.65-2.06,4.65-2.06-7.43,0-8.06,1.86S7.59,32.61,16.36,32.3Z"/><path id="Path_4" data-name="Path 4" class="cls-2" d="M29.07,36.66s8.59-1.83,7.74-6.5c-1-5.68-7-2.48-7-2.48s4.24,0,4.65,2.58S29.07,36.66,29.07,36.66Z"/><path id="Path_5" data-name="Path 5" class="cls-2" d="M24.83,34.18a42.45,42.45,0,0,1-5.37.93c-4.3.48-9.5.1-9.92-.63s.73-1.13.73-1.13C5.1,34.59,7.93,36.75,14,37.17c5.19.35,12.91-1.56,12.91-1.56Z"/><path id="Path_6" data-name="Path 6" class="cls-2" d="M11.51,38.69S9.16,38.76,9,40s1.44,2.34,7.22,2.69a22,22,0,0,0,9.85-1.59L23.49,39.5s-1.65.35-4.2.69-7.78-.28-8-.76A.6.6,0,0,1,11.51,38.69Z"/><path id="Path_7" data-name="Path 7" class="cls-2" d="M34,44.27a1.09,1.09,0,0,0-.28-1.72.74.74,0,0,1-.13,1C33.07,44.13,28,45.5,20,45.92S3.17,45.16,2.9,44.13s4.48-1.86,4.48-1.86c-.55.07-7.16.21-7.37,2S2.9,47.5,15.3,47.5,33.13,45.22,34,44.27Z"/><path id="Path_8" data-name="Path 8" class="cls-2" d="M29.21,48.33c-5.45,1.09-22,.4-22,.4a63.46,63.46,0,0,0,23,.42c5.86-1,6.2-3.86,6.2-3.86S34.65,47.22,29.21,48.33Z"/></g></g></svg>