<svg id="vbdotnet" xmlns="http://www.w3.org/2000/svg" width="138.807" height="136.548" viewBox="0 0 138.807 136.548">
  <path id="Path_9" data-name="Path 9" d="M1045.5,641.5" transform="translate(-906.693 -519.575)" fill="none" stroke="lime" stroke-miterlimit="10" stroke-width="1"/>
  <path id="Path_10" data-name="Path 10" d="M1043.5,649.5" transform="translate(-905.109 -525.907)" fill="none" stroke="lime" stroke-miterlimit="10" stroke-width="1"/>
  <path id="Path_11" data-name="Path 11" d="M877.5,56.5" transform="translate(-773.707 -56.5)" fill="none" stroke="lime" stroke-miterlimit="10" stroke-width="1"/>
  <path id="Path_12" data-name="Path 12" d="M878.05,56.72" transform="translate(-774.142 -56.674)" fill="none" stroke="lime" stroke-miterlimit="10" stroke-width="1"/>
  <path id="Path_13" data-name="Path 13" d="M878.15,56.77" transform="translate(-774.222 -56.714)" fill="none" stroke="lime" stroke-miterlimit="10" stroke-width="1"/>
  <path id="Path_14" data-name="Path 14" d="M878.36,56.85" transform="translate(-774.388 -56.777)" fill="none" stroke="lime" stroke-miterlimit="10" stroke-width="1"/>
  <path id="Path_15" data-name="Path 15" d="M879.51,620.5" transform="translate(-775.298 -502.951)" fill="none" stroke="lime" stroke-miterlimit="10" stroke-width="1"/>
  <path id="Path_16" data-name="Path 16" d="M883.5,619.5" transform="translate(-778.456 -502.16)" fill="none" stroke="lime" stroke-miterlimit="10" stroke-width="1"/>
  <path id="Path_17" data-name="Path 17" d="M379.5,544.5" transform="translate(-379.5 -442.791)" fill="none" stroke="lime" stroke-miterlimit="10" stroke-width="1"/>
  <path id="Path_18" data-name="Path 18" d="M136.838,14.183,102.417.094,102.4,0l.208,117.311v-.092L0,102.238l.027.017,102.238,34.283-.073.01,34.658-14.475-.063.092V14.083" transform="translate(1.603)" fill="#fff"/>
  <path id="Path_19" data-name="Path 19" d="M706.5,245.5" transform="translate(-638.347 -206.109)" fill="none" stroke="lime" stroke-miterlimit="10" stroke-width="1"/>
  <path id="Path_20" data-name="Path 20" d="M706.5,258.72" transform="translate(-638.347 -216.573)" fill="none" stroke="lime" stroke-miterlimit="10" stroke-width="1"/>
  <path id="Path_21" data-name="Path 21" d="M707.05,259.31" transform="translate(-638.782 -217.04)" fill="none" stroke="lime" stroke-miterlimit="10" stroke-width="1"/>
  <path id="Path_22" data-name="Path 22" d="M715.5,421.5" transform="translate(-645.471 -345.427)" fill="none" stroke="lime" stroke-miterlimit="10" stroke-width="1"/>
  <path id="Path_23" data-name="Path 23" d="M707,415" transform="translate(-638.743 -340.282)" fill="none" stroke="lime" stroke-miterlimit="10" stroke-width="1"/>
  <path id="Path_24" data-name="Path 24" d="M552.24,368.38" transform="translate(-516.238 -303.378)" fill="none" stroke="lime" stroke-miterlimit="10" stroke-width="1"/>
  <path id="Path_25" data-name="Path 25" d="M524.5,340.82" transform="translate(-494.279 -281.562)" fill="none" stroke="lime" stroke-miterlimit="10" stroke-width="1"/>
  <path id="Path_26" data-name="Path 26" d="M849.5,459.5" transform="translate(-751.543 -375.507)" fill="none" stroke="lime" stroke-miterlimit="10" stroke-width="1"/>
  <path id="Path_27" data-name="Path 27" d="M797.92,481.72" transform="translate(-710.713 -393.096)" fill="none" stroke="lime" stroke-miterlimit="10" stroke-width="1"/>
  <path id="Path_28" data-name="Path 28" d="M806.5,195.5" transform="translate(-717.505 -166.53)" fill="none" stroke="lime" stroke-miterlimit="10" stroke-width="1"/>
  <path id="Path_29" data-name="Path 29" d="M730.5,127.5" transform="translate(-657.345 -112.702)" fill="none" stroke="lime" stroke-miterlimit="10" stroke-width="1"/>
  <path id="Path_30" data-name="Path 30" d="M706,151.89" transform="translate(-637.951 -132.009)" fill="none" stroke="lime" stroke-miterlimit="10" stroke-width="1"/>
  <path id="Path_31" data-name="Path 31" d="M521.46,335.19" transform="translate(-491.873 -277.106)" fill="none" stroke="lime" stroke-miterlimit="10" stroke-width="1"/>
  <path id="Path_32" data-name="Path 32" d="M797.5,524" transform="translate(-710.381 -426.564)" fill="none" stroke="lime" stroke-miterlimit="10" stroke-width="1"/>
  <path id="Path_33" data-name="Path 33" d="M484.5,446.5" transform="translate(-462.616 -365.216)" fill="none" stroke="lime" stroke-miterlimit="10" stroke-width="1"/>
  <path id="Path_34" data-name="Path 34" d="M491.5,223.5" transform="translate(-468.157 -188.694)" fill="none" stroke="lime" stroke-miterlimit="10" stroke-width="1"/>
  <path id="Path_35" data-name="Path 35" d="M596.5,331.5" transform="translate(-551.273 -274.185)" fill="none" stroke="lime" stroke-miterlimit="10" stroke-width="1"/>
  <path id="Path_36" data-name="Path 36" d="M42.8,189.511l.046-.017-.067-.065Z" transform="translate(-32.261 -149.949)" fill="#fff"/>
  <path id="Path_37" data-name="Path 37" d="M42.2,370.675l.031-.033-.1-.031Z" transform="translate(-31.754 -293.368)" fill="#fff"/>
  <path id="Path_38" data-name="Path 38" d="M486.481,152.25l-31.223,31.023-18.945-14.145-7.418,2.709,18.937,18.81L428.79,209.565l7.939,2.709,18.629-14.158,31.24,31.04,19.039-8.2v-60.5Zm.4,54.775v-.09l-21.363-16.307-.083.065-.013-.138.1.073,21.363-15.98v-.129l.058.085-.058.044v32.286l.021.017Z" transform="translate(-418.517 -132.294)" fill="#fff"/>
</svg>
